<?xml version="1.0" encoding="UTF-8" standalone="no"?>
<svg
   xmlns:dc="http://purl.org/dc/elements/1.1/"
   xmlns:cc="http://creativecommons.org/ns#"
   xmlns:rdf="http://www.w3.org/1999/02/22-rdf-syntax-ns#"
   xmlns:svg="http://www.w3.org/2000/svg"
   xmlns="http://www.w3.org/2000/svg"
   width="51.200001"
   height="51.200001"
   id="svg2"
   version="1.1">
  <metadata
     id="metadata33">
    <rdf:RDF>
      <cc:Work
         rdf:about="">
        <dc:format>image/svg+xml</dc:format>
        <dc:type
           rdf:resource="http://purl.org/dc/dcmitype/StillImage" />
        <dc:title></dc:title>
      </cc:Work>
    </rdf:RDF>
  </metadata>
  <defs
     id="defs4">
    <linearGradient
       id="a"
       y1="1016.36"
       x1="13"
       y2="1040.36"
       gradientUnits="userSpaceOnUse"
       x2="36"
       gradientTransform="translate(0,-1004.36)">
      <stop
         stop-color="#292c2f"
         id="stop7" />
      <stop
         offset="1"
         stop-opacity="0"
         id="stop9" />
    </linearGradient>
    <linearGradient
       id="b"
       y1="44"
       y2="4"
       x2="0"
       gradientUnits="userSpaceOnUse"
       gradientTransform="scale(1.0666667)">
      <stop
         stop-color="#7cbaf8"
         id="stop12" />
      <stop
         offset="1"
         stop-color="#f4fcff"
         id="stop14" />
    </linearGradient>
    <linearGradient
       id="c"
       y1="39"
       y2="9"
       x2="0"
       gradientUnits="userSpaceOnUse"
       gradientTransform="matrix(1.02857,0,0,1.2,-5.314,-4.8)"
       x1="0"
       spreadMethod="pad">
      <stop
         stop-color="#197cf1"
         id="stop17" />
      <stop
         offset="1"
         stop-color="#20bcfa"
         id="stop19" />
    </linearGradient>
  </defs>
  <rect
     style="opacity:0.8;fill:#808080;fill-opacity:1;stroke:#000000;stroke-width:1.5;stroke-linejoin:round;stroke-miterlimit:4;stroke-dasharray:none"
     id="rect3753"
     width="20"
     height="12"
     x="2.75"
     y="2.75" />
  <rect
     y="2.75"
     x="28.450001"
     height="12"
     width="20"
     id="rect3765"
     style="opacity:0.8;fill:#808080;fill-opacity:1;stroke:#000000;stroke-width:1.5;stroke-linejoin:round;stroke-miterlimit:4;stroke-dasharray:none" />
  <rect
     style="opacity:0.8;fill:#808080;fill-opacity:1;stroke:#000000;stroke-width:1.5;stroke-linejoin:round;stroke-miterlimit:4;stroke-dasharray:none"
     id="rect3767"
     width="20"
     height="12"
     x="2.75"
     y="36.450001" />
  <rect
     y="36.450001"
     x="28.450001"
     height="12"
     width="20"
     id="rect3769"
     style="opacity:0.8;fill:#808080;fill-opacity:1;stroke:#000000;stroke-width:1.5;stroke-linejoin:round;stroke-miterlimit:4;stroke-dasharray:none" />
  <rect
     y="19.6"
     x="2.75"
     height="12"
     width="20"
     id="rect3771"
     style="opacity:0.8;fill:#808080;fill-opacity:1;stroke:#000000;stroke-width:1.5;stroke-linejoin:round;stroke-miterlimit:4;stroke-dasharray:none" />
  <rect
     style="opacity:0.8;fill:#808080;fill-opacity:1;stroke:#000000;stroke-width:1.5;stroke-linejoin:round;stroke-miterlimit:4;stroke-dasharray:none"
     id="rect3773"
     width="20"
     height="12"
     x="28.450001"
     y="19.6" />
  <g
     transform="matrix(-0.98259094,0,0,1,483.36255,-87.406098)"
     id="g3973">
    <path
       style="fill:#ffffff;stroke:#0b1521;stroke-width:2.01763964;stroke-linecap:butt;stroke-linejoin:round;stroke-opacity:1"
       d="m 477.22051,113.0061 6.10631,16 -18.31892,-4 -2.03543,-4 10.17717,-10 z"
       id="path3969" />
    <path
       style="fill:#729fcf;stroke:none"
       d="m 456.86616,93.006094 -4.07087,4 20.35435,20.000006 c 0,-3 1.01772,-4 4.07087,-4 z"
       id="path3843" />
    <path
       style="fill:#3465a4;stroke:none"
       d="m 452.79529,97.006087 -4.07087,4.000013 20.35435,20 c 0,-3 1.01772,-4 4.07087,-4 z"
       id="path3843-7" />
    <path
       style="fill:#204a87;stroke:none"
       d="m 448.72442,101.0061 -4.07087,4 20.35435,20 c 0,-3 1.01772,-4 4.07087,-4 z"
       id="path3843-5" />
    <path
       style="fill:none;stroke:#3465a4;stroke-width:2.01763964;stroke-linecap:round;stroke-linejoin:miter;stroke-opacity:1"
       d="m 447.70671,103.00609 18.31891,18.00001"
       id="path3888" />
    <path
       style="fill:none;stroke:#729fcf;stroke-width:2.01763964;stroke-linecap:round;stroke-linejoin:miter;stroke-opacity:1"
       d="M 451.77757,99.006097 470.09649,117.0061"
       id="path3888-5" />
    <path
       style="fill:none;stroke:#0b1521;stroke-width:2.01763964;stroke-linecap:butt;stroke-linejoin:round;stroke-opacity:1"
       d="m 456.86616,93.006097 -4.07087,4 20.35435,20.000003 c 0,-3 1.01772,-4 4.07087,-4 z"
       id="path3843-5-6" />
    <path
       style="fill:none;stroke:#0b1521;stroke-width:2.01763964;stroke-linecap:butt;stroke-linejoin:round;stroke-opacity:1"
       d="m 452.79529,97.006097 -4.07087,4.000003 20.35435,20 c 0,-3 1.01772,-4 4.07087,-4 z"
       id="path3843-5-6-2" />
    <path
       style="fill:none;stroke:#0b1521;stroke-width:2.01763964;stroke-linecap:butt;stroke-linejoin:round;stroke-opacity:1"
       d="m 448.72442,101.0061 -4.07087,4 20.35435,20 c 0,-3 1.01772,-4 4.07087,-4 z"
       id="path3843-5-6-9" />
    <path
       style="fill:#0b1521;stroke:#0b1521;stroke-width:1.00881982px;stroke-linecap:butt;stroke-linejoin:round;stroke-opacity:1"
       d="m 479.25595,122.0061 c -1.01772,0 -3.63385,2.51623 -4.07087,5 l 8.14174,2 -3.05315,-7 h -1.01772"
       id="path3971" />
  </g>
</svg>
