<?xml version="1.0" encoding="UTF-8" standalone="no"?>
<svg
   version="1.1"
   id="svg2963"
   height="68.26667"
   width="68.26667"
   xmlns:xlink="http://www.w3.org/1999/xlink"
   xmlns="http://www.w3.org/2000/svg"
   xmlns:svg="http://www.w3.org/2000/svg"
   xmlns:rdf="http://www.w3.org/1999/02/22-rdf-syntax-ns#"
   xmlns:cc="http://creativecommons.org/ns#"
   xmlns:dc="http://purl.org/dc/elements/1.1/">
  <defs
     id="defs2965">
    <linearGradient
       id="linearGradient3354">
      <stop
         id="stop3356"
         offset="0"
         style="stop-color:#2157c7;stop-opacity:1;" />
      <stop
         id="stop3358"
         offset="1"
         style="stop-color:#6daaff;stop-opacity:1;" />
    </linearGradient>
    <linearGradient
       xlink:href="#linearGradient3354"
       id="linearGradient4516"
       gradientUnits="userSpaceOnUse"
       x1="14.577716"
       y1="27.643585"
       x2="50.611004"
       y2="42.347919"
       gradientTransform="translate(6.647111,-10.475545)" />
    <linearGradient
       gradientTransform="translate(-39.003978,-11.048337)"
       y2="42.347919"
       x2="50.611004"
       y1="27.643585"
       x1="14.577716"
       gradientUnits="userSpaceOnUse"
       id="linearGradient14"
       xlink:href="#linearGradient3354" />
    <linearGradient
       y2="42.347919"
       x2="50.611004"
       y1="27.643585"
       x1="14.577716"
       gradientTransform="translate(4.6199053,-9.1170449)"
       gradientUnits="userSpaceOnUse"
       id="linearGradient18"
       xlink:href="#linearGradient3354" />
  </defs>
  <metadata
     id="metadata2968">
    <rdf:RDF>
      <cc:Work
         rdf:about="">
        <dc:format>image/svg+xml</dc:format>
        <dc:type
           rdf:resource="http://purl.org/dc/dcmitype/StillImage" />
      </cc:Work>
    </rdf:RDF>
  </metadata>
  <g
     id="g2645"
     transform="matrix(0.12794098,0,0,0.15094696,-59.123744,-12.365443)">
    <path
       style="fill:#000000;stroke:#000000;stroke-width:3;stroke-miterlimit:4;stroke-dasharray:none"
       d="m 590.89216,498.59544 c 2.41569,-0.88387 5.39067,-2.61693 6.61107,-3.85124 C 600.02451,492.19418 603,486.77318 603,484.72973 603,483.1772 651.29504,375.1399 655.35908,367.60106 656.81159,364.90664 658,361.96081 658,361.05476 c 0,-2.52141 9.40517,-16.28465 13.90828,-20.35293 14.83348,-13.40116 43.16095,-17.30058 95.59172,-13.15867 10.45,0.82552 22.6,1.74699 27,2.04771 4.4,0.30072 33.39733,2.30596 64.43852,4.4561 31.04118,2.15013 56.52682,3.80666 56.63476,3.68118 0.10794,-0.12548 12.46532,-27.67815 27.46084,-61.22815 14.99551,-33.55 27.64737,-61.15 28.11523,-61.33333 1.48944,-0.58365 0.92225,-2.48036 -1.52868,-5.11195 -2.56484,-2.7539 -64.29762,-82.70767 -64.81112,-83.94071 C 904.6393,125.70519 876.825,123.37538 843,120.93667 c -70.52981,-5.08507 -97.49405,-5.71238 -111.76818,-2.60024 -30.48899,6.6474 -59.61278,23.67454 -88.88876,51.96856 -34.7932,33.62618 -65.58188,77.74729 -88.75948,127.19501 -3.35141,7.15 -7.06002,14.575 -8.24136,16.5 -1.18133,1.925 -2.58449,5.075 -3.11813,7 -1.21455,4.38123 -47.21019,107.16295 -51.91093,116 -4.01052,7.53947 -3.95196,10.83247 0.34335,19.30886 3.229,6.37212 14.5264,17.61037 24.15171,24.02525 13.76991,9.17709 35.02922,17.57343 50.69178,20.02066 5.74804,0.89811 21.02141,-0.16012 25.39216,-1.75933 z"
       id="path108" />
    <path
       style="fill:#f00909"
       d="m 605.06037,370.60503 c -1.8918,-0.68355 -3.61099,-1.75688 -3.82042,-2.38519 -0.4729,-1.41868 12.88636,-28.26519 18.77568,-37.73125 7.20238,-11.57659 20.22026,-28.39014 30.13402,-38.92032 8.97254,-9.53043 30.97254,-29.77941 31.63491,-29.11704 0.17552,0.17551 -3.43726,5.65829 -8.0284,12.18394 -18.49572,26.2891 -25.44381,36.22888 -30.6623,43.86483 -20.45296,29.92776 -26.41943,39.12487 -29.75589,45.86775 -2.0771,4.19774 -4.01536,7.59801 -4.30726,7.55617 -0.29189,-0.0418 -2.07854,-0.63534 -3.97034,-1.31889 z M 595.5,367.16718 c -1.1,-0.19872 -2.4275,-0.76763 -2.95,-1.26424 C 592.0275,365.40632 591.03557,365 590.34572,365 c -0.98071,0 -17.84455,-9.1655 -19.01216,-10.3331 -0.14866,-0.14867 0.61948,-3.17204 1.70698,-6.7186 1.0875,-3.54657 2.88841,-10.2733 4.00202,-14.9483 1.1136,-4.675 2.6893,-11.24753 3.50155,-14.60561 9.27272,-38.33626 36.46101,-72.78546 67.98325,-86.13887 13.8898,-5.88398 19.11278,-6.75563 40.47264,-6.75437 18.37651,0.001 36,1.69601 36,3.46227 0,0.39541 -4.6125,3.43779 -10.25,6.76085 C 683.65769,254.05181 651.58572,282.90985 628.86807,313 618.56687,326.64422 615.00681,332.48427 606,350.51363 c -7.18598,14.38452 -8.80918,16.959 -10.5,16.65355 z"
       id="path106" />
    <path
       style="fill:#54a009"
       d="m 548.20363,493.73995 c -1.81301,-0.58073 -3.09619,-1.54729 -2.85151,-2.14791 2.91729,-7.16119 53.04695,-118.31814 53.64112,-118.9432 0.445,-0.46814 2.24435,-0.53593 3.99857,-0.15064 2.60605,0.57238 3.09015,1.08039 2.64644,2.77712 -0.84895,3.24642 -53.0768,119.71197 -53.63825,119.61069 -0.275,-0.0496 -1.98337,-0.56533 -3.79637,-1.14606 z m -19.08919,-7.87627 c -5.65501,-2.82498 -10.50919,-5.72881 -10.78707,-6.45296 -0.27789,-0.72415 11.54947,-28.25248 26.28301,-61.17406 l 26.78826,-59.85742 11.33171,5.73739 c 6.23244,3.15556 11.83814,5.9062 12.45711,6.11252 1.70166,0.56722 -52.27669,120.74611 -54.23933,120.75993 -0.85352,0.006 -6.17869,-2.30043 -11.83369,-5.1254 z"
       id="path104" />
    <path
       style="fill:#4e9209"
       d="m 558.51727,496.86682 c -2.1905,-0.51275 -4.37666,-1.32621 -4.85813,-1.80768 -0.50055,-0.50055 10.51855,-26.32537 25.73272,-60.30825 C 594.02634,402.06282 606,374.87621 606,374.33619 c 0,-0.79265 13.73262,1.95565 14.5406,2.91 0.11818,0.1396 -11.94289,27.36631 -26.8024,60.50381 -29.66934,66.16425 -26.66395,61.11984 -35.22093,59.11682 z m -46.67115,-21.33157 c -2.55963,-1.87834 -4.96892,-3.92493 -5.35398,-4.54797 -0.97632,-1.57972 52.6914,-121.13083 54.1292,-120.57909 0.62482,0.23977 3.203,1.93351 5.72929,3.76388 3.28013,2.37655 4.47375,3.87156 4.17527,5.22956 -0.59153,2.69131 -52.91889,119.57455 -53.5259,119.56042 -0.275,-0.006 -2.59424,-1.54846 -5.15388,-3.4268 z"
       id="path102" />
    <path
       style="fill:#ce0909"
       d="m 616.53243,373.33832 c -3.28216,-0.79207 -6.12354,-1.5961 -6.31418,-1.78674 -0.19064,-0.19063 1.31925,-3.65523 3.35531,-7.6991 4.50536,-8.94818 22.32448,-35.4597 52.99894,-78.85248 7.97032,-11.275 14.7328,-21.175 15.02774,-22 0.29493,-0.825 3.64224,-3.75 7.43845,-6.5 3.79622,-2.75 6.91551,-5.3375 6.93176,-5.75 0.0163,-0.4125 0.51851,-0.75 1.11612,-0.75 0.59762,0 4.31012,-2.19489 8.25,-4.87753 8.92498,-6.07695 18.24382,-11.42432 31.23339,-17.92244 C 745.5868,222.68929 758.55828,217 759.82584,217 c 0.26456,0 -7.5565,7.7625 -17.38014,17.25 -65.48265,63.242 -81.15559,79.99551 -97.11246,103.80781 -5.82182,8.68785 -13.9056,23.00058 -17.61725,31.19219 -1.43294,3.1625 -3.19274,5.70015 -3.91067,5.63923 -0.71792,-0.0609 -3.99073,-0.75884 -7.27289,-1.55091 z M 569.5,353.92479 c -1.14086,-1.11258 -4.85476,-4.22475 -8.44992,-7.08085 -2.2628,-1.79764 -2.35328,-2.19061 -1.18461,-5.14512 0.69592,-1.75935 3.91735,-11.14632 7.15873,-20.85993 7.94041,-23.79547 15.22419,-40.26953 25.02916,-56.60962 19.59976,-32.66321 44.67967,-59.10166 64.88499,-68.39968 C 665.39071,191.94 677.51817,189 685.11029,189 c 7.31662,0 27.57075,3.5143 34.38971,5.96697 9.97856,3.58912 20.22391,7.88849 31,13.00886 l 11,5.22676 -6.5,2.44483 c -3.575,1.34466 -11.7875,5.12474 -18.25,8.40018 -6.4625,3.27544 -11.75,5.5597 -11.75,5.07612 0,-1.9143 -16.96508,-3.62145 -36,-3.62257 -15.99465,-9.4e-4 -20.75341,0.33847 -26.47264,1.88815 -39.83743,10.79431 -71.65294,46.86338 -82.57133,93.6107 -1.0919,4.675 -2.48385,10.525 -3.09321,13 -1.39103,5.64979 -5.91929,21.01704 -6.17333,20.95 -0.10422,-0.0275 -0.63949,-0.48884 -1.18949,-1.02521 z"
       id="path100" />
    <path
       style="fill:#437e09"
       d="m 569.25,498.29427 c -0.26404,-13.28915 14.01909,-33.11452 19.20707,-48.81888 10.745,-23.99323 21.49663,-47.98349 32.24461,-71.97539 20.82889,-3.90218 -3.01944,21.99501 -4.41537,32.49468 -13.54734,29.11816 -25.27483,59.16443 -40.25621,87.57017 -1.44356,2.54114 -4.62433,0.68183 -6.7801,0.72942 z M 501.78424,467.20685 C 494.5168,462.66976 503.4218,455.3552 504.5884,449.36964 520.50069,414 536.25168,378.5566 552.38108,343.28558 c 11.54947,2.41112 4.90694,11.84398 1.90903,18.32961 -16.32283,36.43284 -32.64566,72.86567 -48.96849,109.2985 -1.17913,-1.23561 -2.35825,-2.47123 -3.53738,-3.70684 z m 348.1962,-136.20848 c -18.3185,-1.63009 -37.09194,-2.09257 -55.12093,-4.58113 10.66337,-31.0755 26.30677,-60.49163 39.14225,-90.80979 7.18037,-15.06881 10.27969,-37.39854 32.186,-28.18883 33.85409,2.2186 67.72427,4.28533 101.53936,7.02715 -17.47117,40.17329 -35.63242,80.04492 -53.47722,120.05423 -21.43963,0.23772 -42.87227,-2.30514 -64.26946,-3.50163 z"
       id="path98" />
    <path
       style="fill:#b10909"
       d="m 627.71599,369.25 c 22.51113,-49.82075 65.22594,-85.67072 102.92334,-123.67472 10.95807,-10.00174 20.8046,-21.5638 32.863,-30.16591 19.74996,-7.57831 40.8463,-10.52763 61.92714,-10.10149 8.45493,0.31442 25.86833,-3.45363 15.04222,9.58694 -16.83728,37.05473 -33.08308,74.38241 -50.28947,111.26695 -19.3953,-0.34361 -38.78033,-2.45298 -58.21562,-2.45001 2.14427,-9.33697 11.07099,-34.09661 -9.17434,-33.2474 -26.98386,4.19524 -48.44028,24.20348 -65.02986,44.69964 -9.54549,12.13697 -16.65416,25.90244 -23.16829,39.836 -3.25538,-0.75668 -12.45243,2.31758 -7.91373,-3.46441 0.34521,-0.76186 0.69041,-1.52373 1.03561,-2.28559 z m -72.53422,-27.69575 c -6.81064,-4.47225 1.99729,-11.61232 2.26279,-17.36262 13.02169,-37.31971 31.12594,-72.69736 53.30317,-105.39778 10.77542,-16.05793 21.43909,-32.34885 33.64683,-47.29485 16.49925,-15.59249 34.55397,-30.50411 55.55873,-39.499 20.72061,15.71146 40.92866,32.24658 61.48221,48.24172 9.6744,8.09092 21.15494,15.84477 29.62948,24.20231 -9.76582,3.01815 -19.78969,5.37269 -29.37421,9.05597 -23.13744,-11.4733 -46.99504,-23.00887 -73.27076,-24.34385 -26.972,-1.23833 -50.41511,16.06572 -67.31101,35.52137 -26.75817,29.33763 -45.1016,65.40898 -56.45137,103.28056 -2.75409,3.41405 -4.20369,23.73987 -9.47586,13.59617 z"
       id="path96" />
    <path
       style="fill:#3a6b09"
       d="m 577,498.5154 c 0,-0.31637 12.12876,-27.67426 26.95281,-60.79531 L 630.90562,377.5 l 3.6817,-0.31838 c 3.15469,-0.27281 3.60817,-0.0581 3.16797,1.5 -0.43265,1.53138 -52.71216,118.59119 -53.11731,118.93572 C 584.02911,498.13512 577,498.96159 577,498.5154 Z m -81.53252,-38.20538 c -1.35963,-2.07505 -1.53801,-3.27518 -0.78032,-5.25 2.75954,-7.19233 52.80275,-118.05204 53.26854,-118.00469 0.29936,0.0304 1.47325,1.26793 2.60863,2.75 l 2.06432,2.69467 -27.02379,60.25 C 510.74178,435.8875 498.27708,463 497.90555,463 c -0.37154,0 -1.46867,-1.21049 -2.43807,-2.68998 z"
       id="path94" />
    <path
       style="fill:#900909"
       d="m 635,374.53854 c 0,-1.82654 11.81199,-23.95063 16.57139,-31.03854 11.73964,-17.4832 32.94023,-37.6948 46.92861,-44.73945 7.70059,-3.87807 17.54533,-7.48703 22.30808,-8.17787 5.04942,-0.73242 12.35861,1.99174 14.1064,5.25752 1.97005,3.68108 1.26857,13.18333 -1.54361,20.9098 L 730.7321,324 h -7.73824 -7.73824 l -0.64322,-3.75 c -1.11822,-6.51927 -2.78403,-7.7692 -10.14808,-7.61463 -5.12055,0.10748 -7.94424,0.85033 -13.70672,3.60595 -18.47069,8.83268 -34.04835,25.95685 -44.81772,49.26711 -2.15772,4.67036 -4.48939,8.49771 -5.1815,8.50522 -0.69211,0.008 -2.27088,0.285 -3.50838,0.61664 -1.2375,0.33163 -2.25,0.29035 -2.25,-0.0917 z M 549.51372,334.3806 c -1.68602,-2.5732 -1.60635,-2.88628 4.51676,-17.75 9.52405,-23.1194 11.62949,-27.85987 20.04432,-45.1306 8.28424,-17.0027 18.58973,-35.86108 26.77692,-49 5.34118,-8.5716 21.58415,-28.5652 32.49636,-40 5.96007,-6.2455 6.44265,-6.56886 4.47724,-3 -1.21157,2.2 -3.8365,6.025 -5.83319,8.5 -3.96928,4.92013 -20.23183,28.85409 -29.06032,42.76872 -9.94102,15.66811 -21.66952,36.78252 -27.99944,50.40644 -5.05796,10.88628 -19.58366,47.17853 -21.64305,54.07484 -0.72573,2.43027 -1.77132,2.18951 -3.7756,-0.8694 z M 768.5,185.8975 C 755.3,175.35579 740.675,163.78248 736,160.17903 724.46346,151.28677 714.74348,143.53775 707.239,137.25 c -3.44626,-2.8875 -6.82237,-5.25988 -7.50246,-5.27196 -2.107,-0.0374 7.27809,-3.97502 17.76346,-7.45282 10.61756,-3.52164 19.39159,-5.10537 34.0104,-6.13895 l 9.0104,-0.63705 11.17007,14.37539 c 13.17929,16.96118 27.59715,34.64245 45.25702,55.50069 l 12.80601,15.1253 -16.62695,0.53916 c -9.14482,0.29654 -17.52695,0.81711 -18.62695,1.15682 -1.54925,0.47846 -7.40898,-3.70203 -26,-18.54908 z"
       id="path92" />
    <path
       style="fill:#2e5409"
       d="m 585.44537,496.25003 c 17.60099,-39.74915 35.31922,-79.44739 53.1645,-119.08744 17.55763,-5.47698 -4.45871,21.42194 -5.74158,30.81936 -12.96282,28.90292 -25.59933,57.9697 -39.29909,86.52974 -0.79209,0.0426 -9.38107,6.73388 -8.12383,1.73834 z m -93.96669,-42.66665 c -0.76258,-19.61726 14.81231,-37.3769 20.80569,-56.16972 10.35265,-23.12942 20.71646,-46.25385 31.0741,-69.38104 6.64517,6.40055 2.5969,13.31094 -0.9635,20.19807 -16.29159,36.31884 -32.54023,72.66654 -48.79347,108.9948 l -0.50013,-0.13253 z M 846.75836,203.38839 c -21.07385,-28.20187 -43.40111,-55.47557 -63.91072,-84.09377 40.07282,2.3924 80.10444,5.44951 120.15424,8.20538 21.20916,28.18539 44.26371,55.65174 63.96915,84.44858 -41.36767,-2.95566 -81.75545,-5.82288 -120.21267,-8.56019 z"
       id="path90" />
    <path
       style="fill:#700a0a"
       d="m 645.54845,366.31941 c 10.60827,-23.29268 25.88874,-40.44304 44.09803,-49.49438 6.82882,-3.39442 9.20758,-4.07169 14.70673,-4.18721 5.48735,-0.11528 6.80747,0.18927 8.07199,1.86218 1.65041,2.18344 3.14976,8.25837 2.25827,9.14986 -0.50547,0.50547 -10.72757,1.93195 -19.76933,2.75878 -8.70876,0.79638 -16.93749,5.62321 -25.97747,15.23791 -6.57073,6.98847 -9.56192,11.35676 -13.60221,19.86445 -3.46579,7.29797 -6.42256,10.47771 -11.09085,11.92722 -2.17204,0.67442 -2.12327,0.40833 1.30484,-7.11881 z m -99.56221,-38.86857 c -1.60309,-5.72566 -1.12709,-6.9993 14.36053,-38.42461 11.55185,-23.43939 21.15762,-40.05399 34.76324,-60.12816 9.28107,-13.69359 12.1211,-16.6339 5.02227,-5.19959 -15.79683,25.44444 -30.35753,54.7242 -45.63073,91.7577 -3.61932,8.7759 -6.7257,16.1013 -6.90307,16.27868 -0.17738,0.17737 -0.90288,-1.75044 -1.61224,-4.28402 z M 824.28967,196.25 c -13.67832,-15.60581 -39.11753,-46.75892 -58.5901,-71.75 l -4.67508,-6 5.23775,-0.31841 c 2.88077,-0.17513 7.03776,-0.0416 9.23776,0.29669 4.34615,0.66833 -0.8427,-5.67749 60.29801,73.7428 L 844.09603,203 h -6.94503 -6.94503 z"
       id="path88" />
  </g>
</svg>
