<?xml version="1.0" encoding="UTF-8" standalone="no"?>
<!-- Created with Inkscape (http://www.inkscape.org/) -->

<svg
   width="64"
   height="64"
   id="svg2869"
   version="1.1"
   viewBox="0 0 64 64"
   xmlns:xlink="http://www.w3.org/1999/xlink"
   xmlns="http://www.w3.org/2000/svg"
   xmlns:svg="http://www.w3.org/2000/svg"
   xmlns:rdf="http://www.w3.org/1999/02/22-rdf-syntax-ns#"
   xmlns:cc="http://creativecommons.org/ns#"
   xmlns:dc="http://purl.org/dc/elements/1.1/">
  <defs
     id="defs2871">
    <linearGradient
       id="linearGradient39">
      <stop
         style="stop-color:#4e9a06;stop-opacity:1"
         offset="0"
         id="stop39" />
      <stop
         style="stop-color:#8ae234;stop-opacity:1"
         offset="1"
         id="stop40" />
    </linearGradient>
    <linearGradient
       id="linearGradient5">
      <stop
         style="stop-color:#ef2929;stop-opacity:1;"
         offset="0"
         id="stop19" />
      <stop
         style="stop-color:#ef2929;stop-opacity:0;"
         offset="1"
         id="stop20" />
    </linearGradient>
    <linearGradient
       id="swatch18">
      <stop
         style="stop-color:#ef2929;stop-opacity:1;"
         offset="0"
         id="stop18" />
    </linearGradient>
    <linearGradient
       id="swatch15">
      <stop
         style="stop-color:#3d0000;stop-opacity:1;"
         offset="0"
         id="stop15" />
    </linearGradient>
    <linearGradient
       id="linearGradient5-1">
      <stop
         style="stop-color:#ef2929;stop-opacity:1;"
         offset="0"
         id="stop5" />
      <stop
         style="stop-color:#ef2929;stop-opacity:0;"
         offset="1"
         id="stop6" />
    </linearGradient>
    <linearGradient
       id="linearGradient3836-9">
      <stop
         style="stop-color:#a40000;stop-opacity:1"
         offset="0"
         id="stop3838-8" />
      <stop
         style="stop-color:#ef2929;stop-opacity:1"
         offset="1"
         id="stop3840-1" />
    </linearGradient>
    <linearGradient
       xlink:href="#linearGradient39"
       id="linearGradient40"
       x1="18.545235"
       y1="12.462868"
       x2="28.070248"
       y2="24.462868"
       gradientUnits="userSpaceOnUse" />
    <linearGradient
       xlink:href="#linearGradient39"
       id="linearGradient41"
       gradientUnits="userSpaceOnUse"
       x1="31.795235"
       y1="39.587868"
       x2="30.445248"
       y2="28.837868" />
  </defs>
  <metadata
     id="metadata2874">
    <rdf:RDF>
      <cc:Work
         rdf:about="">
        <dc:format>image/svg+xml</dc:format>
        <dc:type
           rdf:resource="http://purl.org/dc/dcmitype/StillImage" />
        <dc:creator>
          <cc:Agent>
            <dc:title>[maxwxyz]</dc:title>
          </cc:Agent>
        </dc:creator>
        <dc:relation>https://www.freecad.org/wiki/index.php?title=Artwork</dc:relation>
        <dc:publisher>
          <cc:Agent>
            <dc:title>FreeCAD</dc:title>
          </cc:Agent>
        </dc:publisher>
        <dc:identifier>FreeCAD/src/</dc:identifier>
        <dc:rights>
          <cc:Agent>
            <dc:title>FreeCAD LGPL2+</dc:title>
          </cc:Agent>
        </dc:rights>
        <dc:date>2024</dc:date>
      </cc:Work>
    </rdf:RDF>
  </metadata>
  <g
     id="layer3"
     style="display:inline">
    <path
       d="M 54.072129,7.8165707 37.954109,7.967001 45.882935,22.010743 62.000076,21.859806 Z"
       style="fill:#729fcf;fill-rule:evenodd;stroke:#0c1522;stroke-width:2;stroke-linecap:round;stroke-linejoin:round;stroke-dasharray:none;stroke-opacity:1"
       id="path30" />
    <path
       d="M 62.000076,21.859806 45.882935,22.010743 37.69374,36.204915 53.810882,36.053978 Z"
       style="fill:#3465a4;fill-rule:evenodd;stroke:#0c1522;stroke-width:2;stroke-linecap:round;stroke-linejoin:round;stroke-dasharray:none;stroke-opacity:1"
       id="path31" />
    <path
       d="m 27.672662,39.877916 c -0.306628,0.53147 -0.744409,0.961632 -1.281103,1.29253 -0.0079,0.0049 -0.01721,0.0082 -0.02511,0.01305 -0.174629,0.106121 -0.358796,0.20236 -0.553613,0.287439 -0.0039,0.0018 -0.0073,0.0037 -0.01133,0.0055 -0.02621,0.01141 -0.05631,0.01894 -0.08289,0.02996 -0.17123,0.07083 -0.347095,0.135918 -0.531926,0.190968 -0.07322,0.02188 -0.151,0.03785 -0.226352,0.05729 -0.154393,0.03967 -0.309487,0.07789 -0.471829,0.107103 -0.08846,0.01601 -0.180497,0.02679 -0.271275,0.03971 -0.153349,0.02169 -0.307173,0.04231 -0.466439,0.05512 -0.113789,0.0092 -0.230716,0.01264 -0.347382,0.01729 -0.142052,0.0056 -0.284485,0.0099 -0.430384,0.0088 -0.05419,-4.27e-4 -0.105403,0.0047 -0.16008,0.0034 -0.08441,-0.0019 -0.172324,-0.01186 -0.257864,-0.01603 -0.11833,-0.0059 -0.236599,-0.01281 -0.356952,-0.02296 -0.142425,-0.01203 -0.286314,-0.02856 -0.431146,-0.04667 -0.130551,-0.01616 -0.260791,-0.03253 -0.393224,-0.0535 -0.135002,-0.02159 -0.270935,-0.04711 -0.407373,-0.07366 -0.151866,-0.02927 -0.303315,-0.05972 -0.457049,-0.09517 -0.102103,-0.02371 -0.204561,-0.05051 -0.30713,-0.07683 -0.187146,-0.04782 -0.374402,-0.09746 -0.563525,-0.154294 -0.09053,-0.02724 -0.18105,-0.05832 -0.271689,-0.0875 -0.188243,-0.06063 -0.37612,-0.121889 -0.565548,-0.191397 -0.115013,-0.04208 -0.229039,-0.09005 -0.343782,-0.135143 -0.165341,-0.0652 -0.330325,-0.128375 -0.49597,-0.200312 -0.165919,-0.07174 -0.329676,-0.150153 -0.494076,-0.227965 -0.115121,-0.05466 -0.230067,-0.105498 -0.345042,-0.163419 -0.285761,-0.143685 -0.568784,-0.294344 -0.846588,-0.455619 L 8.0867986,54.179785 c 4.6952044,2.712704 9.7971184,2.664822 11.3961644,-0.106775 z"
       style="fill:#3465a4;fill-rule:evenodd;stroke:#0c1522;stroke-width:2;stroke-linecap:round;stroke-linejoin:round;stroke-dasharray:none;stroke-opacity:1"
       id="path34" />
    <path
       d="m 16.275979,39.985589 c -0.277853,-0.159797 -0.550016,-0.330008 -0.81669,-0.505389 -0.09821,-0.06443 -0.190605,-0.131924 -0.286504,-0.19787 -0.162477,-0.112004 -0.324575,-0.223524 -0.481786,-0.340641 -0.132945,-0.09874 -0.258755,-0.201103 -0.386667,-0.302453 -0.104911,-0.08333 -0.211472,-0.165211 -0.31349,-0.250593 -0.147766,-0.123449 -0.288445,-0.249272 -0.428678,-0.375839 -0.07921,-0.07151 -0.159885,-0.142127 -0.236936,-0.214747 -0.134451,-0.126814 -0.261574,-0.255585 -0.388323,-0.384864 -0.08347,-0.08495 -0.167066,-0.169425 -0.247386,-0.255521 -0.105009,-0.112895 -0.204638,-0.226447 -0.303657,-0.34074 -0.08879,-0.102141 -0.176658,-0.204242 -0.260716,-0.307545 -0.08904,-0.109793 -0.173491,-0.219811 -0.256863,-0.330474 -0.08425,-0.111526 -0.166318,-0.223 -0.244648,-0.335395 -0.07216,-0.103566 -0.139972,-0.207302 -0.207026,-0.311263 -0.04317,-0.0671 -0.09286,-0.13339 -0.133769,-0.200656 -0.02861,-0.04666 -0.04962,-0.09371 -0.07715,-0.140398 -0.07619,-0.12934 -0.146579,-0.258117 -0.214588,-0.387502 -0.05306,-0.101013 -0.106722,-0.201737 -0.154642,-0.302557 -0.06894,-0.144815 -0.129032,-0.288683 -0.187277,-0.43281 -0.03432,-0.0852 -0.07075,-0.170261 -0.101255,-0.254978 -0.05561,-0.154029 -0.1002,-0.306344 -0.143022,-0.458747 -0.02141,-0.07649 -0.04657,-0.153189 -0.06469,-0.229023 -0.04138,-0.172518 -0.06959,-0.342444 -0.09371,-0.511716 -0.0059,-0.04158 -0.01853,-0.08478 -0.02333,-0.126071 -9.15e-4,-0.0076 -3.52e-4,-0.01467 -0.0012,-0.02227 -0.02166,-0.191529 -0.02811,-0.379274 -0.02657,-0.565149 2.44e-4,-0.02902 -0.0039,-0.05923 -0.0031,-0.08803 0.01782,-0.631105 0.17081,-1.226073 0.477663,-1.757936 L 2.480306,44.249489 c -1.59904724,2.771598 0.9113357,7.21756 5.6065572,9.930272 z"
       style="fill:#729fcf;fill-rule:evenodd;stroke:#0c1522;stroke-width:2;stroke-linecap:round;stroke-linejoin:round;stroke-dasharray:none;stroke-opacity:1"
       id="path35" />
    <path
       d="m 37.954109,7.967001 c -1.179484,0.00859 -2.366163,0.031881 -3.611623,0.23113 -1.243374,0.1951205 -2.543777,0.5641135 -3.894573,1.1540767 -1.34951,0.587067 -2.747668,1.3924813 -4.151306,2.3808453 -1.403107,0.986698 -2.810129,2.153679 -4.162702,3.419957 -2.712255,2.536537 -5.168978,5.436363 -7.061214,8.019494 -0.9472,1.299117 -1.774848,2.516963 -2.482561,3.655214 -0.714866,1.139266 -1.321652,2.188878 -1.920188,3.226702 -0.298508,0.516223 -0.459409,1.112382 -0.477658,1.757927 -8.2e-4,0.02891 0.0034,0.05896 0.0031,0.08803 -0.0016,0.185008 0.0048,0.372881 0.02657,0.565152 0.0056,0.04895 0.01751,0.09907 0.02455,0.148339 0.02381,0.168733 0.05244,0.338869 0.09371,0.511714 0.01818,0.07581 0.04324,0.152694 0.06469,0.229024 0.04265,0.152296 0.08743,0.304395 0.143021,0.458747 0.03057,0.08466 0.06692,0.16993 0.101265,0.254955 0.05802,0.143922 0.118461,0.288018 0.187276,0.43281 0.048,0.100837 0.101565,0.201581 0.154642,0.302556 0.06783,0.129152 0.138467,0.258379 0.214588,0.387501 0.067,0.113757 0.137716,0.227569 0.210918,0.341063 0.06691,0.104024 0.134904,0.207771 0.207027,0.311262 0.07808,0.112074 0.16071,0.223987 0.244649,0.335395 0.08357,0.11065 0.167712,0.220911 0.256862,0.330474 0.08367,0.103187 0.17214,0.205301 0.260717,0.307546 0.09925,0.114154 0.19877,0.228301 0.303656,0.340739 0.07991,0.08591 0.164066,0.17054 0.247386,0.255521 0.127047,0.129293 0.254359,0.258589 0.388324,0.384865 0.0768,0.07243 0.157674,0.14322 0.236935,0.214747 0.140343,0.126701 0.28191,0.252998 0.428678,0.375839 0.101534,0.08484 0.208474,0.167387 0.31349,0.250593 0.12792,0.101613 0.254706,0.204146 0.386668,0.302453 0.156265,0.116056 0.318757,0.228533 0.481785,0.340641 0.09571,0.06602 0.189087,0.133795 0.286504,0.19787 0.264415,0.173646 0.536278,0.343378 0.81669,0.505388 0.258699,-0.452109 0.52646,-0.908135 0.803392,-1.366102 5.522726,-9.165843 16.864256,-15.57232 25.154036,-16.443833 0.0068,-7.14e-4 0.01297,-0.001 0.01976,-0.0018 0.545004,-0.05683 1.070276,-0.08654 1.590101,-0.110231 0.691042,-0.03109 1.370178,-0.04746 2.039698,-0.0529 z"
       style="fill:#8ae234;fill-rule:evenodd;stroke:#17230b;stroke-width:2;stroke-linecap:round;stroke-linejoin:round;stroke-dasharray:none;stroke-opacity:1"
       id="path32" />
    <path
       d="m 45.882935,22.010743 c -0.668081,0.0044 -1.348402,0.02139 -2.039697,0.05291 -0.519367,0.02337 -1.043902,0.05235 -1.590101,0.110231 -7.906294,0.824409 -19.418698,6.926669 -25.173795,16.445575 -0.275881,0.457432 -0.542663,0.913093 -0.803393,1.366102 0.28099,0.162344 0.563539,0.312982 0.846592,0.45559 0.114226,0.05742 0.229861,0.108894 0.345042,0.163417 0.164505,0.07809 0.329549,0.156524 0.494075,0.227965 0.164607,0.07117 0.330387,0.135258 0.49597,0.200313 0.114726,0.04524 0.229337,0.09315 0.343784,0.135143 0.188403,0.06893 0.377025,0.130708 0.565546,0.191397 0.09062,0.02919 0.181435,0.06037 0.27169,0.0875 0.188365,0.05667 0.376141,0.106209 0.563524,0.154293 0.102414,0.02616 0.205442,0.05337 0.30713,0.07684 0.153419,0.03561 0.305026,0.0656 0.45705,0.09517 0.136516,0.02632 0.272597,0.05233 0.407373,0.07365 0.132025,0.02112 0.262857,0.03721 0.393223,0.05351 0.144663,0.01789 0.28906,0.03467 0.431146,0.04667 0.120411,0.01014 0.238522,0.0172 0.356952,0.02296 0.140679,0.007 0.2804,0.01164 0.417947,0.01269 0.145658,0.0012 0.288635,-0.0032 0.430384,-0.0088 0.116675,-0.0046 0.233513,-0.0082 0.347382,-0.0173 0.159139,-0.0129 0.313424,-0.03336 0.466439,-0.05512 0.09069,-0.01283 0.182791,-0.02378 0.271274,-0.03971 0.162528,-0.02941 0.317695,-0.06737 0.471829,-0.107103 0.07528,-0.01935 0.153077,-0.03545 0.226351,-0.05729 0.185094,-0.05531 0.361469,-0.120187 0.531927,-0.190967 0.03068,-0.01269 0.064,-0.02219 0.09423,-0.03539 0.826775,-0.360942 1.464748,-0.906603 1.859817,-1.593019 0.363044,-0.651422 0.793568,-1.290941 1.529741,-1.814866 0.72095,-0.527178 1.717011,-0.940573 2.799718,-1.226059 1.081498,-0.287647 2.220504,-0.450167 3.192064,-0.533427 0.984347,-0.08432 1.772532,-0.09196 2.499556,-0.09865 z"
       style="fill:#8ae234;fill-rule:evenodd;stroke:#17230b;stroke-width:2;stroke-linecap:round;stroke-linejoin:round;stroke-dasharray:none;stroke-opacity:1"
       id="path33" />
    <path
       d="m 36.642578,10.734375 5.537109,9.806641 c -0.157156,0.01287 -0.310513,0.02411 -0.472656,0.04102 0,0 0.01181,-9.16e-4 -0.01563,0.002 -8.479961,0.891268 -19.779274,7.264518 -25.503906,16.388672 -0.03189,-0.02556 -0.0544,-0.04257 -0.0918,-0.07227 -0.107184,-0.0849 -0.185468,-0.143657 -0.263672,-0.208985 -0.11785,-0.09861 -0.235781,-0.203093 -0.361328,-0.316406 -0.08403,-0.07581 -0.140394,-0.124111 -0.197265,-0.177734 -0.09945,-0.09371 -0.195638,-0.193469 -0.320313,-0.320313 -0.08362,-0.08527 -0.140644,-0.141693 -0.205078,-0.210937 -0.07841,-0.08403 -0.15808,-0.173899 -0.248047,-0.277344 -0.08646,-0.09978 -0.150865,-0.175485 -0.212891,-0.251953 -0.06527,-0.0802 -0.131486,-0.164316 -0.205078,-0.261719 -0.07309,-0.09698 -0.136074,-0.183425 -0.193359,-0.265625 -0.04779,-0.06855 -0.09558,-0.143772 -0.160156,-0.244141 -0.064,-0.0992 -0.116177,-0.182393 -0.164063,-0.263672 -0.05143,-0.08722 -0.103276,-0.18098 -0.162109,-0.292968 -0.05664,-0.10773 -0.08552,-0.158293 -0.115235,-0.220703 -0.04255,-0.0895 -0.07681,-0.175576 -0.132812,-0.314454 -0.03758,-0.093 -0.05569,-0.129882 -0.07227,-0.175781 -0.03126,-0.08678 -0.05923,-0.182289 -0.0957,-0.3125 -0.03221,-0.114625 -0.04338,-0.148199 -0.04297,-0.146484 -0.02243,-0.09391 -0.04133,-0.196085 -0.05859,-0.31836 -0.02238,-0.156673 -0.01773,-0.09116 -0.01758,-0.08984 -0.0098,-0.08636 -0.01274,-0.182998 -0.01172,-0.304688 0.0019,-0.182468 -0.0039,-0.05253 -0.0039,-0.05273 0.0094,-0.333765 0.08935,-0.590404 0.203125,-0.78711 0.578019,-1.001981 1.146582,-1.985936 1.822265,-3.0625 0.654646,-1.052618 1.427571,-2.190681 2.318359,-3.412109 1.773255,-2.420056 4.062805,-5.119608 6.587891,-7.480469 1.255293,-1.174888 2.542752,-2.241294 3.816406,-3.136718 1.269474,-0.893653 2.507064,-1.601941 3.673828,-2.109375 1.15773,-0.505505 2.254759,-0.81532 3.294922,-0.978516 0.692292,-0.110723 1.376645,-0.149557 2.074219,-0.171875 z"
       style="fill:url(#linearGradient40);fill-rule:evenodd;stroke:#8be236;stroke-width:1.93308;stroke-linecap:round;stroke-linejoin:round;stroke-dasharray:none;stroke-opacity:1"
       id="path36"
       transform="matrix(1.0344814,0,0,1.0347593,-1.1033722,-1.1122976)" />
    <path
       d="m 41.978516,24.443359 -5.601563,9.707032 c -0.437381,0.01297 -0.914026,0.03586 -1.453125,0.08203 -1.013781,0.08685 -2.240546,0.260224 -3.414062,0.572265 -1.160669,0.305961 -2.418656,0.815511 -3.335938,1.480469 -0.0015,0.0011 -0.0024,0.0028 -0.0039,0.0039 -0.0049,0.0035 -0.01076,0.0062 -0.01563,0.0098 -1.053733,0.755758 -1.615945,1.638562 -2.025391,2.373047 l 0.01172,-0.02344 c -0.147346,0.25594 -0.425937,0.527905 -0.894531,0.732422 0,0 0.09242,-0.04094 -0.05859,0.02148 -0.109605,0.0455 -0.219248,0.08329 -0.326172,0.115234 -0.0042,0.0013 -0.04459,0.01237 -0.148437,0.03906 -0.132849,0.03423 -0.229725,0.05658 -0.316407,0.07227 -0.03794,0.0068 -0.07945,0.0096 -0.191406,0.02539 -0.147555,0.02098 -0.238396,0.03327 -0.333984,0.04102 -0.07148,0.0057 -0.132824,0.0068 -0.257813,0.01172 -0.120895,0.0048 -0.222724,0.0067 -0.324219,0.0059 -0.105262,-8e-4 -0.214362,-0.0042 -0.326171,-0.0098 -0.10837,-0.0053 -0.191837,-0.0086 -0.275391,-0.01563 -0.103537,-0.0087 -0.213283,-0.02146 -0.339844,-0.03711 -0.117409,-0.01467 -0.217078,-0.02904 -0.316406,-0.04492 -0.102456,-0.01621 -0.209165,-0.03566 -0.328125,-0.05859 -0.144018,-0.028 -0.260163,-0.04953 -0.375,-0.07617 -0.07838,-0.01808 -0.150116,-0.03845 -0.251953,-0.06445 -0.165234,-0.04239 -0.319344,-0.08397 -0.46875,-0.128906 -0.06869,-0.02065 -0.134561,-0.04201 -0.228516,-0.07227 -0.169378,-0.05451 -0.322997,-0.106135 -0.470703,-0.160156 -0.08507,-0.03121 -0.169403,-0.06652 -0.292969,-0.115235 -0.02856,-0.01122 -0.04572,-0.01888 -0.07227,-0.0293 5.323042,-8.359341 15.516307,-13.680813 22.435547,-14.457032 z"
       style="font-variation-settings:normal;opacity:1;vector-effect:none;fill:url(#linearGradient41);fill-opacity:1;fill-rule:evenodd;stroke:#8be236;stroke-width:1.93308;stroke-linecap:round;stroke-linejoin:round;stroke-miterlimit:4;stroke-dasharray:none;stroke-dashoffset:0;stroke-opacity:1;-inkscape-stroke:none;stop-color:#000000;stop-opacity:1"
       id="path37"
       transform="matrix(1.0344814,0,0,1.0347593,-1.1033722,-1.1122976)" />
    <path
       d="m 52.212891,10.572266 5.492187,9.726562 -11.162109,0.103516 -5.492188,-9.726563 z"
       style="fill:#3465a4;fill-rule:evenodd;stroke:#729fcf;stroke-width:1.93308;stroke-linecap:round;stroke-linejoin:round;stroke-dasharray:none;stroke-opacity:1"
       id="path41"
       transform="matrix(1.0344814,0,0,1.0347593,-1.1033722,-1.1122976)" />
    <path
       d="m 57.634766,24.166016 -5.671875,9.828125 -11.09375,0.105468 5.671875,-9.830078 z"
       style="fill:#204a87;fill-rule:evenodd;stroke:#3465a4;stroke-width:1.93308;stroke-linecap:round;stroke-linejoin:round;stroke-dasharray:none;stroke-opacity:1"
       id="path42"
       transform="matrix(1.0344814,0,0,1.0347593,-1.1033722,-1.1122976)" />
    <path
       d="m 17.5625,42.263672 c 0.03385,0.01502 0.0635,0.03016 0.09766,0.04492 0.188361,0.08178 0.377697,0.156319 0.541016,0.220703 0.107593,0.04227 0.247545,0.09791 0.375,0.144531 0.216896,0.07957 0.426198,0.148814 0.61914,0.210938 0.08155,0.02625 0.192334,0.06366 0.298829,0.0957 0.214603,0.06447 0.423064,0.121292 0.621093,0.171875 0.09643,0.02474 0.224824,0.05638 0.34375,0.08398 0.18178,0.04191 0.353627,0.07809 0.50586,0.107422 0.148864,0.02895 0.302788,0.05675 0.460937,0.08203 0.155831,0.02466 0.303386,0.04346 0.441406,0.06055 0.154703,0.01934 0.323905,0.03819 0.496094,0.05273 0.150441,0.01269 0.292254,0.02137 0.41211,0.02734 0.03907,0.0019 0.158055,0.01248 0.300781,0.01563 0.21446,0.0049 0.181476,-0.002 0.18164,-0.002 0.01397,1.09e-4 0.02523,-4e-5 0.03906,0 l -5.070313,8.785156 c -0.659055,1.142022 -3.333779,1.602035 -6.636718,0.248047 z"
       style="fill:#204a87;fill-rule:evenodd;stroke:#3465a4;stroke-width:1.93308;stroke-linecap:round;stroke-linejoin:round;stroke-dasharray:none;stroke-opacity:1"
       id="path43"
       transform="matrix(1.0344814,0,0,1.0347593,-1.1033722,-1.1122976)" />
    <path
       d="m 10.207031,36.021484 c 0.0093,0.01595 0.01591,0.02884 0.02539,0.04492 0,0 -0.01624,-0.01347 0.08789,0.15625 0.07623,0.125298 0.143592,0.217532 0.158203,0.240235 0.06477,0.1004 0.149065,0.229402 0.238281,0.357421 0.09345,0.134057 0.189137,0.263495 0.279297,0.382813 0.08992,0.119326 0.184362,0.243524 0.291015,0.375 0.101984,0.125299 0.204596,0.242413 0.291016,0.341797 0.103567,0.119512 0.21758,0.249306 0.341797,0.382812 0.09695,0.103897 0.194562,0.202985 0.271484,0.28125 0.120798,0.123178 0.270452,0.275632 0.429688,0.425782 0.09199,0.08668 0.190473,0.173786 0.259765,0.236328 0.144704,0.130566 0.303447,0.270462 0.470704,0.410156 0.118625,0.09925 0.245928,0.199266 0.341796,0.275391 0.113991,0.09029 0.268134,0.215427 0.419922,0.328125 0.03403,0.02534 0.06643,0.04693 0.101563,0.07227 L 8.2441406,50.679687 C 5.4216437,48.494346 4.4800832,45.9459 5.1386719,44.804687 Z"
       style="fill:#3465a4;fill-rule:evenodd;stroke:#729fcf;stroke-width:1.93308;stroke-linecap:round;stroke-linejoin:round;stroke-dasharray:none;stroke-opacity:1"
       id="path44"
       transform="matrix(1.0344814,0,0,1.0347593,-1.1033722,-1.1122976)" />
  </g>
</svg>
