<?xml version="1.0" encoding="UTF-8" standalone="no"?>
<svg
   xmlns:dc="http://purl.org/dc/elements/1.1/"
   xmlns:cc="http://creativecommons.org/ns#"
   xmlns:rdf="http://www.w3.org/1999/02/22-rdf-syntax-ns#"
   xmlns:svg="http://www.w3.org/2000/svg"
   xmlns="http://www.w3.org/2000/svg"
   xmlns:xlink="http://www.w3.org/1999/xlink"
   version="1.1"
   id="svg2963"
   height="68.26667"
   width="68.26667">
  <defs
     id="defs2965">
    <linearGradient
       id="linearGradient3354">
      <stop
         id="stop3356"
         offset="0"
         style="stop-color:#2157c7;stop-opacity:1;" />
      <stop
         id="stop3358"
         offset="1"
         style="stop-color:#6daaff;stop-opacity:1;" />
    </linearGradient>
    <linearGradient
       xlink:href="#linearGradient3354"
       id="linearGradient4516"
       gradientUnits="userSpaceOnUse"
       x1="14.577716"
       y1="27.643585"
       x2="50.611004"
       y2="42.347919" />
  </defs>
  <metadata
     id="metadata2968">
    <rdf:RDF>
      <cc:Work
         rdf:about="">
        <dc:format>image/svg+xml</dc:format>
        <dc:type
           rdf:resource="http://purl.org/dc/dcmitype/StillImage" />
        <dc:title></dc:title>
      </cc:Work>
    </rdf:RDF>
  </metadata>
  <path
     id="path21"
     style="fill:url(#linearGradient4516);fill-rule:evenodd;stroke:#ff0000;stroke-width:2;stroke-linecap:round;stroke-linejoin:miter;stroke-opacity:1;fill-opacity:1;opacity:0.3"
     d="M 5.7054974,64.417238 C 5.1010723,15.336488 29.101921,22.676059 40.971688,5.3464369 H 62.608052 C 54.71524,24.223532 53.524812,30.593212 45.733395,40.582366 41.269083,46.305933 27.187921,53.095662 27.341861,64.417238 c -7.212121,-5.205197 -14.424242,-7.421225 -21.6363636,0 z" />
  <path
     d="M 5.7054974,64.417238 C 5.1010723,15.336488 29.101921,22.676059 40.971688,5.3464369 H 62.608052 C 54.71524,24.223532 53.524812,30.593212 45.733395,40.582366 41.269083,46.305933 27.187921,53.095662 27.341861,64.417238 c -7.212121,-5.205197 -14.424242,-7.421225 -21.6363636,0 z"
     style="fill:none;fill-rule:evenodd;stroke:#000000;stroke-width:2;stroke-linecap:round;stroke-linejoin:miter;stroke-opacity:1;fill-opacity:1;opacity:1"
     id="path12" />
  <path
     id="path16"
     d="m 10.702826,13.01695 -10e-7,20.103955 37.749155,3.471187 -0.578532,-20.393221 z"
     style="opacity:0.4;fill:#00ff00;stroke:#000000;stroke-width:1px;stroke-linecap:butt;stroke-linejoin:miter;stroke-opacity:1" />
  <path
     id="path14"
     d="M 10.702825,33.120905 C 33.226133,23.276093 39.013208,31.898531 48.45198,36.592092"
     style="fill:none;stroke:#ff0000;stroke-width:2;stroke-linecap:butt;stroke-linejoin:miter;stroke-opacity:1" />
</svg>
