<?xml version="1.0" encoding="UTF-8" standalone="no"?>
<!-- Created with Inkscape (http://www.inkscape.org/) -->

<svg
   width="64"
   height="64"
   id="svg2869"
   version="1.1"
   viewBox="0 0 64 64"
   xmlns:xlink="http://www.w3.org/1999/xlink"
   xmlns="http://www.w3.org/2000/svg"
   xmlns:svg="http://www.w3.org/2000/svg"
   xmlns:rdf="http://www.w3.org/1999/02/22-rdf-syntax-ns#"
   xmlns:cc="http://creativecommons.org/ns#"
   xmlns:dc="http://purl.org/dc/elements/1.1/">
  <defs
     id="defs2871">
    <linearGradient
       id="linearGradient64">
      <stop
         id="stop63"
         offset="0"
         style="stop-color:#204a87;stop-opacity:1" />
      <stop
         id="stop64"
         offset="1"
         style="stop-color:#729fcf;stop-opacity:0;" />
    </linearGradient>
    <linearGradient
       id="linearGradient5">
      <stop
         style="stop-color:#ef2929;stop-opacity:1;"
         offset="0"
         id="stop19" />
      <stop
         style="stop-color:#ef2929;stop-opacity:0;"
         offset="1"
         id="stop20" />
    </linearGradient>
    <linearGradient
       id="swatch18">
      <stop
         style="stop-color:#ef2929;stop-opacity:1;"
         offset="0"
         id="stop18" />
    </linearGradient>
    <linearGradient
       id="swatch15">
      <stop
         style="stop-color:#3d0000;stop-opacity:1;"
         offset="0"
         id="stop15" />
    </linearGradient>
    <linearGradient
       id="linearGradient5-1">
      <stop
         style="stop-color:#ef2929;stop-opacity:1;"
         offset="0"
         id="stop5" />
      <stop
         style="stop-color:#ef2929;stop-opacity:0;"
         offset="1"
         id="stop6" />
    </linearGradient>
    <linearGradient
       id="linearGradient3836-9">
      <stop
         style="stop-color:#a40000;stop-opacity:1"
         offset="0"
         id="stop3838-8" />
      <stop
         style="stop-color:#ef2929;stop-opacity:1"
         offset="1"
         id="stop3840-1" />
    </linearGradient>
    <linearGradient
       xlink:href="#linearGradient861"
       id="linearGradient863"
       x1="9.0836382"
       y1="289.34735"
       x2="7.6573739"
       y2="296.46655"
       gradientUnits="userSpaceOnUse"
       gradientTransform="matrix(3.4983983,0,0,3.5023235,1.4718968,-978.4025)" />
    <linearGradient
       id="linearGradient861">
      <stop
         style="stop-color:#4e9a06;stop-opacity:1"
         offset="0"
         id="stop857" />
      <stop
         style="stop-color:#8ae234;stop-opacity:1"
         offset="1"
         id="stop859" />
    </linearGradient>
    <linearGradient
       xlink:href="#linearGradient3253"
       id="linearGradient3255"
       x1="3.2606225"
       y1="286.32809"
       x2="16.780064"
       y2="286.32809"
       gradientUnits="userSpaceOnUse"
       gradientTransform="matrix(3.4983983,0,0,3.5023235,1.4718968,-978.4025)" />
    <linearGradient
       id="linearGradient3253">
      <stop
         style="stop-color:#204a87;stop-opacity:1"
         offset="0"
         id="stop3249" />
      <stop
         style="stop-color:#729fcf;stop-opacity:1"
         offset="1"
         id="stop3251" />
    </linearGradient>
    <linearGradient
       gradientUnits="userSpaceOnUse"
       y2="59.272804"
       x2="14.34337"
       y1="6.9468999"
       x1="50.471035"
       id="linearGradient834"
       xlink:href="#linearGradient832"
       gradientTransform="matrix(0.93494019,0,0,0.9341045,0.1743414,-0.47835777)" />
    <linearGradient
       id="linearGradient832">
      <stop
         id="stop828"
         offset="0"
         style="stop-color:#a40000;stop-opacity:1" />
      <stop
         id="stop830"
         offset="1"
         style="stop-color:#ef2929;stop-opacity:1" />
    </linearGradient>
    <linearGradient
       id="b"
       y1="44"
       y2="4"
       x2="0"
       gradientUnits="userSpaceOnUse">
      <stop
         stop-color="#7cbaf8"
         id="stop3" />
      <stop
         offset="1"
         stop-color="#f4fcff"
         id="stop4" />
    </linearGradient>
    <linearGradient
       id="c"
       y1="39"
       y2="9"
       x2="0"
       gradientUnits="userSpaceOnUse"
       gradientTransform="matrix(1.02857,0,0,1.2,-5.314,-4.8)">
      <stop
         stop-color="#197cf1"
         id="stop5-5" />
      <stop
         offset="1"
         stop-color="#20bcfa"
         id="stop6-4" />
    </linearGradient>
    <linearGradient
       id="a"
       y1="1016.36"
       x1="13"
       y2="1040.36"
       gradientUnits="userSpaceOnUse"
       x2="36">
      <stop
         stop-color="#292c2f"
         id="stop1" />
      <stop
         offset="1"
         stop-opacity="0"
         id="stop2" />
    </linearGradient>
    <linearGradient
       id="b-1"
       y1="44"
       y2="4"
       x2="0"
       gradientUnits="userSpaceOnUse">
      <stop
         stop-color="#7cbaf8"
         id="stop3-4" />
      <stop
         offset="1"
         stop-color="#f4fcff"
         id="stop4-9" />
    </linearGradient>
    <linearGradient
       id="c-2"
       y1="39"
       y2="9"
       x2="0"
       gradientUnits="userSpaceOnUse"
       gradientTransform="matrix(1.02857,0,0,1.2,-5.314,-4.8)">
      <stop
         stop-color="#197cf1"
         id="stop5-9" />
      <stop
         offset="1"
         stop-color="#20bcfa"
         id="stop6-3" />
    </linearGradient>
    <linearGradient
       id="a-7"
       y1="1016.36"
       x1="13"
       y2="1040.36"
       gradientUnits="userSpaceOnUse"
       x2="36">
      <stop
         stop-color="#292c2f"
         id="stop1-7" />
      <stop
         offset="1"
         stop-opacity="0"
         id="stop2-9" />
    </linearGradient>
    <linearGradient
       y2="-0.28217164"
       x2="28.317404"
       y1="21.904682"
       x1="45.918888"
       gradientUnits="userSpaceOnUse"
       id="linearGradient863-4"
       xlink:href="#linearGradient64"
       gradientTransform="matrix(0.97931464,0,0,0.97909119,-2.8650864,-4.2022288)" />
    <linearGradient
       id="linearGradient844">
      <stop
         id="stop840"
         offset="0"
         style="stop-color:#3465a4;stop-opacity:1" />
      <stop
         id="stop842"
         offset="1"
         style="stop-color:#729fcf;stop-opacity:1;" />
    </linearGradient>
    <linearGradient
       gradientUnits="userSpaceOnUse"
       y2="16.071377"
       x2="59.694145"
       y1="38.18642"
       x1="35.720928"
       id="linearGradient846"
       xlink:href="#linearGradient844"
       gradientTransform="matrix(0.97931464,0,0,0.97909119,-2.8650864,-4.2022288)" />
    <linearGradient
       gradientUnits="userSpaceOnUse"
       y2="47.961559"
       x2="20.924059"
       y1="-16.748045"
       x1="75.76284"
       id="linearGradient826"
       xlink:href="#linearGradient824"
       gradientTransform="matrix(0.92726548,0,0,0.92710747,-0.19373894,3.6640471)" />
    <linearGradient
       id="linearGradient824">
      <stop
         id="stop820"
         offset="0"
         style="stop-color:#204a87;stop-opacity:1" />
      <stop
         id="stop822"
         offset="1"
         style="stop-color:#729fcf;stop-opacity:0.43556085" />
    </linearGradient>
    <linearGradient
       gradientUnits="userSpaceOnUse"
       y2="47.961559"
       x2="20.924059"
       y1="-16.748045"
       x1="75.76284"
       id="linearGradient826-5"
       xlink:href="#linearGradient824-8"
       gradientTransform="matrix(0.91155429,0,0,0.91091407,0.47146811,0.72334053)" />
    <linearGradient
       id="linearGradient824-8">
      <stop
         id="stop820-9"
         offset="0"
         style="stop-color:#204a87;stop-opacity:1" />
      <stop
         id="stop822-7"
         offset="1"
         style="stop-color:#729fcf;stop-opacity:1" />
    </linearGradient>
    <radialGradient
       r="31.661631"
       fy="4.2368116"
       fx="32.507416"
       cy="4.2368116"
       cx="32.507416"
       gradientTransform="matrix(-0.51591383,1.2110689,-0.95461892,-0.40667305,38.928328,-20.44929)"
       gradientUnits="userSpaceOnUse"
       id="radialGradient864"
       xlink:href="#linearGradient862" />
    <linearGradient
       id="linearGradient862">
      <stop
         id="stop858"
         offset="0"
         style="stop-color:#729fcf;stop-opacity:1" />
      <stop
         id="stop860"
         offset="1"
         style="stop-color:#204a87;stop-opacity:1" />
    </linearGradient>
    <linearGradient
       y2="62.097473"
       x2="24.653502"
       y1="51.356197"
       x1="19.430647"
       gradientUnits="userSpaceOnUse"
       id="linearGradient845"
       xlink:href="#linearGradient3354"
       gradientTransform="matrix(0.94134353,0,0,0.94135127,-0.67631127,0.27699291)" />
    <linearGradient
       id="linearGradient3354">
      <stop
         style="stop-color:#204a87;stop-opacity:1"
         offset="0"
         id="stop3356" />
      <stop
         style="stop-color:#729fcf;stop-opacity:1"
         offset="1"
         id="stop3358" />
    </linearGradient>
    <linearGradient
       y2="63.682098"
       x2="27.555096"
       y1="46.571751"
       x1="8.2564983"
       gradientUnits="userSpaceOnUse"
       id="linearGradient845-2"
       xlink:href="#linearGradient3354-8"
       gradientTransform="matrix(0.92393906,0,0,0.92369005,-0.31027764,0.91625545)" />
    <linearGradient
       id="linearGradient3354-8">
      <stop
         style="stop-color:#5583e3;stop-opacity:1"
         offset="0"
         id="stop3356-0" />
      <stop
         style="stop-color:#bfe8fb;stop-opacity:1"
         offset="1"
         id="stop3358-7" />
    </linearGradient>
    <radialGradient
       r="31.661631"
       fy="4.2368116"
       fx="32.507416"
       cy="4.2368116"
       cx="32.507416"
       gradientTransform="matrix(-0.50637511,1.1883474,-0.936969,-0.39904323,38.562112,-19.42117)"
       gradientUnits="userSpaceOnUse"
       id="radialGradient864-0"
       xlink:href="#linearGradient862-3" />
    <linearGradient
       id="linearGradient862-3">
      <stop
         id="stop858-8"
         offset="0"
         style="stop-color:#a7c8f7;stop-opacity:1" />
      <stop
         id="stop860-6"
         offset="1"
         style="stop-color:#f6f3ff;stop-opacity:1" />
    </linearGradient>
    <linearGradient
       xlink:href="#linearGradient3354-2"
       id="linearGradient4516"
       gradientUnits="userSpaceOnUse"
       x1="14.577716"
       y1="27.643585"
       x2="50.611004"
       y2="42.347919"
       gradientTransform="matrix(0.95817911,0,0,0.95761185,-0.97420707,-2.1192947)" />
    <linearGradient
       id="linearGradient3354-2">
      <stop
         id="stop3356-1"
         offset="0"
         style="stop-color:#204a87;stop-opacity:1" />
      <stop
         id="stop3358-0"
         offset="1"
         style="stop-color:#729fcf;stop-opacity:1" />
    </linearGradient>
    <radialGradient
       gradientTransform="matrix(0.66666671,0.70000004,-1.3510775,1.2867404,32.100634,-19.902858)"
       gradientUnits="userSpaceOnUse"
       r="27.084639"
       fy="18.626959"
       fx="20.802507"
       cy="18.626959"
       cx="20.802507"
       id="radialGradient3808"
       xlink:href="#linearGradient3600" />
    <linearGradient
       id="linearGradient3600">
      <stop
         id="stop3602"
         offset="0"
         style="stop-color:#fce94f;stop-opacity:1" />
      <stop
         id="stop3604"
         offset="1"
         style="stop-color:#c4a000;stop-opacity:1" />
    </linearGradient>
    <linearGradient
       gradientUnits="userSpaceOnUse"
       y2="45"
       x2="42"
       y1="18"
       x1="26"
       id="linearGradient3877"
       xlink:href="#linearGradient3871" />
    <linearGradient
       id="linearGradient3871">
      <stop
         id="stop3873"
         offset="0"
         style="stop-color:#729fcf;stop-opacity:1;" />
      <stop
         id="stop3875"
         offset="1"
         style="stop-color:#3465a4;stop-opacity:1" />
    </linearGradient>
    <linearGradient
       id="linearGradient3593-0">
      <stop
         style="stop-color:#729fcf;stop-opacity:1"
         offset="0"
         id="stop3595-2" />
      <stop
         style="stop-color:#204a87;stop-opacity:1"
         offset="1"
         id="stop3597-1" />
    </linearGradient>
  </defs>
  <metadata
     id="metadata2874">
    <rdf:RDF>
      <cc:Work
         rdf:about="">
        <dc:format>image/svg+xml</dc:format>
        <dc:type
           rdf:resource="http://purl.org/dc/dcmitype/StillImage" />
        <dc:creator>
          <cc:Agent>
            <dc:title>[maxwxyz]</dc:title>
          </cc:Agent>
        </dc:creator>
        <dc:relation>https://www.freecad.org/wiki/index.php?title=Artwork</dc:relation>
        <dc:publisher>
          <cc:Agent>
            <dc:title>FreeCAD</dc:title>
          </cc:Agent>
        </dc:publisher>
        <dc:identifier>FreeCAD/src/</dc:identifier>
        <dc:rights>
          <cc:Agent>
            <dc:title>FreeCAD LGPL2+</dc:title>
          </cc:Agent>
        </dc:rights>
        <dc:date>2024</dc:date>
      </cc:Work>
    </rdf:RDF>
  </metadata>
  <g
     id="layer3"
     style="display:inline">
    <path
       id="path95"
       d="m 42.009529,57.344555 c 0.276749,-4.176086 -19.684708,-4.71038 -19.955464,-0.798337 -0.296455,4.283355 20.69346,3.53082 19.955464,-2.975638 -0.792622,-6.988078 -21.078136,-6.315978 -20.104385,-5.152931 1.89255,2.260461 21.128136,0.32799 20.178845,-5.660967 -1.093465,-6.898519 -20.408158,-6.977529 -20.029924,-5.443232 0.551337,2.236507 21.571686,0.200043 19.955464,-5.515808 -2.055651,-7.269915 -20.285795,-7.14843 -19.955464,-5.515815 0.389456,1.924828 21.306904,0.31848 19.955464,-5.443233 -1.800348,-7.67559 -20.402081,-6.756465 -19.881002,-5.515811 0.6233,1.484036 20.652137,0.221452 19.955462,-5.298081 C 41.065915,1.9588345 20.480003,5.0003092 21.979603,7.2667962 25.888005,13.173936 42.499539,9.0001229 41.935068,7.1942204"
       style="fill:none;stroke:#0b1e23;stroke-width:4;stroke-linecap:round;stroke-linejoin:round;stroke-dasharray:none;stroke-opacity:1" />
    <path
       id="path96"
       d="m 22.054065,56.546218 c -0.296455,4.283355 20.69346,3.53082 19.955464,-2.975638 -0.792622,-6.988078 -21.078136,-6.315978 -20.104385,-5.152931 1.89255,2.260461 21.128136,0.32799 20.178845,-5.660967 -1.093465,-6.898519 -20.408158,-6.977529 -20.029924,-5.443232 0.551337,2.236507 21.571686,0.200043 19.955464,-5.515808 -2.055651,-7.269915 -20.285795,-7.14843 -19.955464,-5.515815 0.389456,1.924828 21.306904,0.31848 19.955464,-5.443233 -1.800348,-7.67559 -20.402081,-6.756465 -19.881002,-5.515811 0.6233,1.484036 20.652137,0.221452 19.955462,-5.298081 C 41.065915,1.9588345 20.480003,5.0003092 21.979603,7.2667962 25.888005,13.173936 42.499539,9.0001229 41.935068,7.1942204"
       style="fill:none;stroke:#eeeeec;stroke-width:2;stroke-linecap:round;stroke-linejoin:round;stroke-dasharray:none;stroke-opacity:1" />
    <path
       id="path12"
       d="m 22.054065,56.546218 c -0.164307,-0.01137 -0.372017,-0.08248 -0.704177,-0.172338 -0.286684,-0.07755 -0.610998,-0.145958 -0.796396,0.06848 -0.126429,0.146233 -0.216208,0.47141 -0.138361,0.908676 0.04734,0.265908 0.154608,0.553203 0.334633,0.834029 0.2779,0.433504 0.685795,0.787119 1.190681,1.05361 0.411606,0.217256 0.883861,0.375456 1.407102,0.48703 0.469882,0.100196 0.989677,0.164578 1.551763,0.197081 1.032149,0.05968 2.230123,0.0127 3.508308,-0.132005 1.239356,-0.140311 2.532057,-0.370097 3.790834,-0.674371 1.32393,-0.320024 2.543564,-0.705891 3.61929,-1.129676 1.273869,-0.501844 2.211079,-1.002247 2.926619,-1.447588 0.463951,-0.288755 0.806508,-0.536464 1.074002,-0.717427 0.0188,-0.01272 0.03724,-0.02512 0.05534,-0.03719 0.303232,-0.202212 0.597572,-0.396795 0.826625,-0.558193 0.298558,-0.210376 0.551776,-0.409105 0.764768,-0.640184 0.318451,-0.345493 0.497652,-0.720655 0.544429,-1.015575 0.09927,0.246253 0.318749,0.686218 0.332933,1.28984 0.0098,0.419127 -0.07971,0.90087 -0.339206,1.397619 -0.207715,0.397634 -0.512911,0.781257 -0.917182,1.118958 -0.0231,0.0193 -0.04686,0.03862 -0.07128,0.05796 -0.350054,0.277163 -0.826265,0.549657 -1.436871,0.791463 -0.92228,0.365231 -2.101014,0.640639 -3.512376,0.788396 -1.198741,0.125498 -2.517322,0.153295 -3.869245,0.07794 -1.293145,-0.07209 -2.569852,-0.236092 -3.739099,-0.478308 -1.216459,-0.251996 -2.250171,-0.574696 -3.054871,-0.930655 -0.434412,-0.192162 -0.783009,-0.385566 -1.052247,-0.570004 -0.301388,-0.206463 -0.482519,-0.387506 -0.577167,-0.522425 -0.120428,-0.171667 -0.07714,-0.220871 -0.04783,-0.196109 0.02372,0.02004 0.04132,0.06989 0.03442,0.11973 -0.01108,0.08005 -0.08546,0.133229 -0.204875,0.135098 -0.342539,0.0054 -1.250477,-0.08655 -1.500573,-0.103856 z m -0.148921,-8.128569 c 0.0044,0.08578 0.01826,0.219093 0.09281,0.397165 0.05399,0.128957 0.136379,0.272791 0.256933,0.426412 0.205968,0.262463 0.504445,0.529093 0.895789,0.774829 0.371878,0.233513 0.805939,0.434199 1.268352,0.584492 0.320112,0.104043 0.646872,0.181553 0.961182,0.227396 0.183993,0.02683 0.376968,0.04278 0.577288,0.04939 1.09962,0.03625 2.345875,-0.205796 3.526729,-0.428266 0.722792,-0.136172 1.402303,-0.260152 1.955084,-0.278181 0.829843,-0.02707 1.226327,0.204823 1.952857,0.232627 0.128728,0.0049 0.26809,0.003 0.421444,-0.0089 0.913652,-0.07117 2.159783,-0.312434 3.418267,-0.742255 1.203997,-0.411212 2.314098,-0.9584 3.181582,-1.615923 0.01978,-0.01499 0.03955,-0.03018 0.05932,-0.04556 0.422673,-0.328955 0.833373,-0.740916 1.1756,-1.211025 0.323027,-0.443735 0.57003,-0.918458 0.720143,-1.40192 0.162397,-0.523025 0.19508,-1.002273 0.142295,-1.421863 -0.0725,-0.576322 -0.295914,-0.97131 -0.426827,-1.199355 -0.05806,0.276819 -0.211155,0.635086 -0.525602,0.951363 -0.218683,0.219956 -0.483495,0.390082 -0.7927,0.538308 -0.28337,0.135842 -0.605262,0.253703 -0.94113,0.367305 -0.359366,0.121548 -0.741027,0.239776 -1.102002,0.366851 -0.01696,0.006 -0.03387,0.01196 -0.05073,0.01797 -0.85409,0.30457 -1.530928,0.543183 -2.67279,0.900658 -0.98654,0.308848 -2.219232,0.667003 -2.918007,0.913956 -0.130671,0.04618 -0.238854,0.116056 -0.352683,0.144788 -2.787502,0.703601 -4.683944,0.630274 -6.705839,0.822689 -0.175506,-0.0013 -0.343582,0.0026 -0.503401,0.01364 -0.272099,0.01887 -0.557396,0.0557 -0.835184,0.100912 -0.399079,0.06495 -0.788107,0.147979 -1.125581,0.226914 -0.287993,0.06736 -0.617087,0.154143 -0.90508,0.221505 -0.146962,0.03461 -0.273648,0.06102 -0.386745,0.07622 -0.157567,0.02117 -0.27446,0.018 -0.361372,-0.0021 z M 22.054065,37.31345 c -0.04136,0.06579 -0.0931,0.181601 -0.07592,0.366277 0.01237,0.133055 0.05964,0.285275 0.150465,0.448647 0.153543,0.276195 0.41547,0.555986 0.775048,0.810697 0.336889,0.23864 0.745674,0.445504 1.196711,0.605091 0.260253,0.09208 0.530684,0.166991 0.801805,0.222041 0.223165,0.04531 0.457293,0.08137 0.701408,0.108902 1.046356,0.118022 2.271708,0.07898 3.591425,-0.05426 1.276832,-0.128918 2.621439,-0.343725 3.962956,-0.583155 2.84e-4,-5e-5 0.08015,-0.01434 0.08044,-0.01438 1.260055,-0.225809 2.582916,-0.473282 3.856568,-0.818435 1.301025,-0.35257 2.493397,-0.792654 3.456617,-1.375294 0.51774,-0.313175 0.959651,-0.662104 1.306842,-1.046166 0.0096,-0.01062 0.01916,-0.02132 0.02867,-0.03207 0.366957,-0.415198 0.649288,-0.915589 0.800006,-1.445923 0.16135,-0.567748 0.152995,-1.098992 0.02738,-1.548702 -0.171743,-0.614846 -0.526849,-0.96655 -0.704944,-1.15907 -0.05642,0.285099 -0.245509,0.648218 -0.608358,0.897848 -0.248109,0.170693 -0.521597,0.255107 -0.810837,0.334007 -0.281687,0.07684 -0.546496,0.141913 -0.84673,0.260837 -0.0076,0.003 -0.01514,0.006 -0.02271,0.0091 -0.272504,0.109891 -0.588645,0.261918 -0.970751,0.441759 -0.742417,0.349424 -1.608258,0.741315 -2.742867,1.142826 -1.077433,0.381277 -2.248326,0.715412 -3.402463,0.939533 -0.02449,0.0048 -0.04899,0.0095 -0.07351,0.01415 -1.229453,0.234445 -2.48084,0.366553 -3.653232,0.457811 -1.208575,0.09407 -2.312028,0.142443 -3.217684,0.227257 -0.211574,0.01981 -0.41268,0.04169 -0.603077,0.0668 -0.230717,0.03043 -0.460983,0.07063 -0.679896,0.115762 -0.378877,0.07811 -0.723795,0.17081 -1.008847,0.261633 -0.323587,0.1031 -0.520842,0.186329 -0.723598,0.270421 -0.110148,0.04568 -0.205708,0.08416 -0.294301,0.104159 -0.126536,0.02857 -0.2239,0.01415 -0.296603,-0.02807 z m 0,-11.031623 c -0.03087,0.03176 -0.06944,0.08175 -0.09608,0.160312 -0.02059,0.06074 -0.03263,0.134667 -0.03006,0.221784 0.0043,0.145361 0.04882,0.31177 0.137335,0.486909 0.07694,0.152237 0.184373,0.305701 0.319492,0.453783 0.127034,0.13922 0.277052,0.272078 0.446801,0.394437 0.28993,0.20899 0.63199,0.383277 0.998515,0.50395 0.06097,0.02007 0.123563,0.03929 0.187763,0.05766 0.426852,0.122133 0.922944,0.206275 1.482043,0.256395 1.02525,0.09191 2.23976,0.06728 3.549877,-0.03642 0.982373,-0.07776 1.983839,-0.197044 2.974809,-0.33582 0.323824,-0.04535 0.651084,-0.09341 0.980371,-0.145057 1.328997,-0.208456 2.675604,-0.473151 3.930621,-0.843615 1.294278,-0.382054 2.465794,-0.869641 3.399972,-1.501711 0.128483,-0.08693 0.252156,-0.176397 0.370688,-0.268416 0.322863,-0.250647 0.628817,-0.544593 0.895904,-0.871558 0.351165,-0.429893 0.622262,-0.901045 0.784918,-1.385963 0.177212,-0.528313 0.206691,-1.01458 0.136112,-1.434933 -0.09672,-0.576014 -0.362522,-0.943786 -0.513622,-1.154966 -0.04506,0.278752 -0.192386,0.628809 -0.507862,0.90859 -0.216852,0.192316 -0.477365,0.322914 -0.776601,0.435668 -0.268454,0.101156 -0.593115,0.196459 -0.920886,0.293514 -0.254216,0.07528 -0.529373,0.156956 -0.798118,0.246335 -0.09956,0.03311 -0.202441,0.0678 -0.308803,0.103871 -0.812321,0.275505 -1.688264,0.581367 -2.848657,0.918072 -1.089239,0.316057 -2.269494,0.610484 -3.484272,0.840927 -0.298706,0.05666 -0.596857,0.108931 -0.89294,0.156186 -0.906569,0.144691 -1.830199,0.248279 -2.72998,0.326865 -1.192163,0.104121 -2.300912,0.158806 -3.188381,0.22152 -0.485935,0.03434 -0.906763,0.07172 -1.258689,0.125195 -0.05306,0.0081 -0.104587,0.01649 -0.154626,0.02534 -0.300072,0.05307 -0.578254,0.137517 -0.813725,0.234058 -0.138866,0.05693 -0.2617,0.117461 -0.371544,0.179774 -0.118458,0.0672 -0.214338,0.132052 -0.305306,0.197055 -0.100191,0.07159 -0.191817,0.141898 -0.278247,0.188341 -0.0535,0.02875 -0.104272,0.04815 -0.154495,0.05688 -0.06527,0.01135 -0.120374,0.0028 -0.162332,-0.01496 z m 0.07446,-10.959044 c -0.01333,0.02902 -0.02387,0.06979 -0.02191,0.12444 0.0016,0.04366 0.01108,0.09392 0.03136,0.149994 0.03398,0.09394 0.09626,0.198871 0.192142,0.30995 0.08295,0.0961 0.189442,0.194963 0.321433,0.294637 0.121493,0.09175 0.26321,0.183142 0.425867,0.273142 0.308042,0.170443 0.682259,0.330927 1.116292,0.476492 0.432418,0.145023 0.909938,0.270402 1.410798,0.37294 0.866892,0.177473 1.761072,0.277375 2.497364,0.294856 0.33484,0.008 0.651138,0.0022 0.951413,-0.01343 1.213101,-0.06294 2.423313,-0.315065 3.834487,-0.559489 -8.27e-4,1.43e-4 0.131885,-0.02277 0.131057,-0.02263 1.102824,-0.189828 2.396068,-0.388553 3.718103,-0.706166 1.264932,-0.303893 2.457713,-0.694945 3.437253,-1.23005 0.488996,-0.267131 0.909785,-0.562318 1.24877,-0.883469 0.03882,-0.03677 0.07706,-0.07447 0.11468,-0.11304 0.380789,-0.390439 0.687637,-0.8606 0.878544,-1.362687 0.204154,-0.536926 0.254448,-1.051684 0.190012,-1.500853 -0.0895,-0.623867 -0.381611,-1.005566 -0.522203,-1.202723 -0.10017,0.25953 -0.335915,0.565197 -0.727109,0.768067 -0.267233,0.138585 -0.557486,0.20818 -0.86883,0.274818 -0.29993,0.06419 -0.594645,0.121489 -0.916665,0.222288 -0.03128,0.0098 -0.06257,0.01993 -0.09385,0.03044 -0.271822,0.09137 -0.585909,0.220114 -0.956704,0.371754 -0.790145,0.323136 -1.645582,0.666922 -2.776849,1.026249 -1.12668,0.35787 -2.293589,0.652321 -3.308276,0.816412 -0.04067,0.0066 -0.081,0.01294 -0.120983,0.01911 -1.396877,0.215408 -2.368403,0.20886 -3.567681,0.348243 -0.276952,0.03219 -0.563848,0.07084 -0.869987,0.118944 -0.646628,0.101607 -1.503364,0.280207 -2.266583,0.449032 -0.448601,0.09923 -0.894207,0.201752 -1.281635,0.294331 -0.394934,0.09437 -0.735822,0.179873 -1.019221,0.25586 -0.150244,0.04029 -0.280693,0.07691 -0.396306,0.11095 -0.126986,0.03739 -0.227371,0.06908 -0.317418,0.0986 -0.0956,0.03134 -0.18707,0.06307 -0.248694,0.08062 -0.04056,0.01155 -0.07663,0.01969 -0.110205,0.02302 -0.0423,0.0042 -0.07783,3.55e-4 -0.108468,-0.01065 z M 21.979603,7.2667962 c -0.05722,0.2417782 -0.435922,0.8467604 -0.11377,1.558105 0.04874,0.1076185 0.113391,0.2229646 0.194638,0.3434932 0.251734,0.3734435 0.653372,0.7835715 1.216144,1.1693326 0.83039,0.569203 1.913688,1.020791 3.226157,1.312482 2.402795,0.534013 5.091104,0.431205 7.323969,0.12674 0.173313,-0.02363 0.342553,-0.04828 0.507376,-0.07365 0.942687,-0.145103 1.934184,-0.355177 2.905527,-0.62804 1.054475,-0.296216 2.016706,-0.647261 2.81446,-1.026549 C 40.468945,9.8514757 40.865949,9.6138206 41.13891,9.4491646 44.174806,7.6178428 42.30958,4.384793 40.403946,6.8072726 39.931171,7.4082724 37.545699,7.8980455 36.559613,8.061422 35.6513,8.2119128 34.767565,8.3294652 33.901375,8.4226671 33.752082,8.438731 33.599038,8.4541875 33.442584,8.4688496 31.349453,8.6650078 29.127548,8.6750695 27.148987,8.3527622 26.099526,8.181805 25.31934,7.9514875 24.688095,7.7297592 24.264144,7.5808438 23.929137,7.4438191 23.647526,7.3501816 c -0.09171,-0.030494 -0.177912,-0.056413 -0.258908,-0.076226 -0.53585,-0.1310784 -1.164115,0.034727 -1.409015,-0.00716 z"
       style="fill:#0b1e23;fill-rule:nonzero;stroke:none;stroke-width:4;stroke-linecap:butt;stroke-linejoin:miter;stroke-dasharray:none;stroke-opacity:1" />
    <path
       id="path97"
       d="m 42.009529,57.344555 c 0.276749,-4.176086 -19.684708,-4.71038 -19.955464,-0.798337 -0.296455,4.283355 20.69346,3.53082 19.955464,-2.975638 M 21.905144,48.417649 c 1.89255,2.260461 21.128136,0.32799 20.178845,-5.660967 M 22.054065,37.31345 c 0.551337,2.236507 21.571686,0.200043 19.955464,-5.515808 M 22.054065,26.281827 c 0.389456,1.924828 21.306904,0.31848 19.955464,-5.443233 M 22.128527,15.322783 c 0.6233,1.484036 20.652137,0.221452 19.955462,-5.298081 M 21.979603,7.2667962 c 3.908402,5.9071398 20.519936,1.7333267 19.955465,-0.072576"
       style="fill:none;stroke:#eeeeec;stroke-width:2;stroke-linecap:round;stroke-linejoin:round;stroke-dasharray:none;stroke-opacity:1" />
  </g>
</svg>
