<?xml version="1.0" encoding="UTF-8" standalone="no"?>
<svg
   xmlns:dc="http://purl.org/dc/elements/1.1/"
   xmlns:cc="http://creativecommons.org/ns#"
   xmlns:rdf="http://www.w3.org/1999/02/22-rdf-syntax-ns#"
   xmlns:svg="http://www.w3.org/2000/svg"
   xmlns="http://www.w3.org/2000/svg"
   version="1.1"
   id="svg2963"
   height="68.26667"
   width="68.26667">
  <defs
     id="defs2965">
    <linearGradient
       id="linearGradient3354">
      <stop
         id="stop3356"
         offset="0"
         style="stop-color:#2157c7;stop-opacity:1;" />
      <stop
         id="stop3358"
         offset="1"
         style="stop-color:#6daaff;stop-opacity:1;" />
    </linearGradient>
  </defs>
  <metadata
     id="metadata2968">
    <rdf:RDF>
      <cc:Work
         rdf:about="">
        <dc:format>image/svg+xml</dc:format>
        <dc:type
           rdf:resource="http://purl.org/dc/dcmitype/StillImage" />
        <dc:title></dc:title>
      </cc:Work>
    </rdf:RDF>
  </metadata>
  <g
     id="layer1">
    <g
       id="text1021"
       style="font-style:normal;font-variant:normal;font-weight:normal;font-stretch:normal;font-size:61.04528427px;line-height:1.25;font-family:'Ubuntu Condensed';-inkscape-font-specification:'Ubuntu Condensed, ';letter-spacing:0px;word-spacing:0px;fill:#000000;fill-opacity:1;stroke:none;stroke-width:1.00000453"
       transform="scale(0.73619883,1.3583287)"
       aria-label="SVG">
      <path
         id="path1023"
         style="font-style:normal;font-variant:normal;font-weight:normal;font-stretch:normal;font-family:'Ubuntu Condensed';-inkscape-font-specification:'Ubuntu Condensed, ';stroke-width:1.00000453"
         d="m 13.985407,42.278764 q 3.296445,0 5.066759,-1.831358 1.831358,-1.831359 1.831358,-4.944668 0,-1.648223 -0.549407,-2.930174 -0.549408,-1.281951 -1.465087,-2.319721 -0.854634,-1.03777 -2.014495,-1.892404 -1.15986,-0.854633 -2.380766,-1.709267 -1.404041,-0.976725 -2.930173,-2.07554 Q 10.017464,23.476817 8.7355126,22.01173 7.5146069,20.546643 6.7210182,18.593194 5.9274295,16.639745 5.9274295,14.014798 q 0,-2.563902 0.854634,-4.6394419 0.9156792,-2.0755397 2.4418113,-3.5406265 1.5871772,-1.4650868 3.7237622,-2.2586755 2.19763,-0.7935887 4.700487,-0.7935887 2.441811,0 4.517351,0.6104528 2.07554,0.6104529 3.479581,1.4650868 L 23.935788,9.1922202 Q 22.653837,8.3375863 21.127705,7.9102693 19.662618,7.421907 18.014396,7.421907 q -2.991219,0 -4.822578,1.6482227 -1.770313,1.5871773 -1.770313,4.7004873 0,1.709268 0.549408,2.991218 0.610452,1.281951 1.526132,2.319721 0.976724,1.03777 2.19763,1.892404 1.281951,0.854634 2.685992,1.770313 1.404042,0.91568 2.869129,2.014495 1.465087,1.098815 2.624947,2.563902 1.220906,1.404041 1.953449,3.35749 0.793589,1.892404 0.793589,4.517351 0,2.380766 -0.732544,4.517351 -0.732543,2.136585 -2.31972,3.784808 -1.526132,1.587177 -3.906899,2.563902 -2.31972,0.915679 -5.494075,0.915679 -2.930174,0 -5.127804,-0.671498 Q 6.8431088,45.636255 5.1338408,44.53744 l 1.709268,-4.395261 q 1.5871773,0.976725 3.2354002,1.587178 1.709268,0.549407 3.906898,0.549407 z" />
      <path
         id="path1025"
         style="font-style:normal;font-variant:normal;font-weight:normal;font-stretch:normal;font-family:'Ubuntu Condensed';-inkscape-font-specification:'Ubuntu Condensed, ';stroke-width:1.00000453"
         d="M 40.854871,46.063572 Q 39.450829,41.485176 38.046787,36.845734 36.642746,32.145247 35.238704,27.017443 33.895708,21.889639 32.552712,16.212428 31.209716,10.474171 29.866719,3.7591899 h 5.738257 q 0.793589,4.7004869 1.770313,9.4620191 0.976725,4.700487 2.07554,9.278883 1.098815,4.578397 2.19763,8.912612 1.159861,4.27317 2.258676,8.119023 1.098815,-3.845853 2.19763,-8.119023 1.15986,-4.334215 2.258676,-8.912612 1.098815,-4.578396 2.075539,-9.278883 0.976725,-4.7615322 1.770313,-9.4620191 h 5.555121 q -1.342996,6.7149811 -2.685992,12.4532381 -1.342996,5.677211 -2.747038,10.805015 -1.342996,5.127804 -2.747038,9.828291 -1.404041,4.639442 -2.808083,9.217838 z" />
      <path
         id="path1027"
         style="font-style:normal;font-variant:normal;font-weight:normal;font-stretch:normal;font-family:'Ubuntu Condensed';-inkscape-font-specification:'Ubuntu Condensed, ';stroke-width:1.00000453"
         d="m 61.691342,24.880858 q 0,-5.982438 1.098815,-10.194562 1.098815,-4.212125 3.11331,-6.837072 2.075539,-2.6859925 4.944668,-3.8458529 2.930173,-1.2209057 6.531845,-1.2209057 2.747038,0 5.005714,0.7935887 2.258675,0.7325434 3.662717,1.7092679 L 84.339143,9.8637184 Q 82.935101,8.8869938 81.286878,8.276541 79.638656,7.6050428 77.502071,7.6050428 q -5.31094,0 -7.630661,4.3342152 -2.31972,4.27317 -2.31972,12.9416 0,4.639442 0.671498,7.935887 0.732543,3.296446 2.014494,5.371985 1.281951,2.07554 3.11331,3.052264 1.831358,0.976725 4.090034,0.976725 1.892403,0 3.2354,-0.427317 V 25.24713 h 5.494075 v 19.900763 q -1.648222,0.793588 -4.090034,1.342996 -2.441811,0.549407 -5.127804,0.549407 -3.296445,0 -6.104528,-1.28195 -2.808083,-1.342997 -4.883623,-4.028989 -2.014494,-2.747038 -3.174355,-6.898117 -1.098815,-4.212125 -1.098815,-9.950382 z" />
    </g>
  </g>
</svg>
