<?xml version="1.0" encoding="UTF-8" standalone="no"?>
<!-- Created with Inkscape (http://www.inkscape.org/) -->

<svg
   width="64"
   height="64"
   id="svg2869"
   version="1.1"
   viewBox="0 0 64 64"
   xmlns="http://www.w3.org/2000/svg"
   xmlns:svg="http://www.w3.org/2000/svg"
   xmlns:rdf="http://www.w3.org/1999/02/22-rdf-syntax-ns#"
   xmlns:cc="http://creativecommons.org/ns#"
   xmlns:dc="http://purl.org/dc/elements/1.1/">
  <defs
     id="defs2871">
    <linearGradient
       id="linearGradient5">
      <stop
         style="stop-color:#ef2929;stop-opacity:1;"
         offset="0"
         id="stop19" />
      <stop
         style="stop-color:#ef2929;stop-opacity:0;"
         offset="1"
         id="stop20" />
    </linearGradient>
    <linearGradient
       id="swatch18">
      <stop
         style="stop-color:#ef2929;stop-opacity:1;"
         offset="0"
         id="stop18" />
    </linearGradient>
    <linearGradient
       id="swatch15">
      <stop
         style="stop-color:#3d0000;stop-opacity:1;"
         offset="0"
         id="stop15" />
    </linearGradient>
    <linearGradient
       id="linearGradient5-1">
      <stop
         style="stop-color:#ef2929;stop-opacity:1;"
         offset="0"
         id="stop5" />
      <stop
         style="stop-color:#ef2929;stop-opacity:0;"
         offset="1"
         id="stop6" />
    </linearGradient>
    <linearGradient
       id="linearGradient3836-9">
      <stop
         style="stop-color:#a40000;stop-opacity:1"
         offset="0"
         id="stop3838-8" />
      <stop
         style="stop-color:#ef2929;stop-opacity:1"
         offset="1"
         id="stop3840-1" />
    </linearGradient>
  </defs>
  <metadata
     id="metadata2874">
    <rdf:RDF>
      <cc:Work
         rdf:about="">
        <dc:format>image/svg+xml</dc:format>
        <dc:type
           rdf:resource="http://purl.org/dc/dcmitype/StillImage" />
        <dc:creator>
          <cc:Agent>
            <dc:title>[maxwxyz]</dc:title>
          </cc:Agent>
        </dc:creator>
        <dc:relation>https://www.freecad.org/wiki/index.php?title=Artwork</dc:relation>
        <dc:publisher>
          <cc:Agent>
            <dc:title>FreeCAD</dc:title>
          </cc:Agent>
        </dc:publisher>
        <dc:identifier>FreeCAD/src/</dc:identifier>
        <dc:rights>
          <cc:Agent>
            <dc:title>FreeCAD LGPL2+</dc:title>
          </cc:Agent>
        </dc:rights>
        <dc:date>2024</dc:date>
      </cc:Work>
    </rdf:RDF>
  </metadata>
  <g
     id="layer3"
     style="display:inline">
    <g
       id="layer1">
      <path
         style="fill:#000000;fill-opacity:1;stroke:#0b1e23;stroke-width:5;stroke-linecap:round;stroke-linejoin:round;stroke-dasharray:none;stroke-opacity:1"
         d="M 8.7620161,29.748118 C 8.6481552,21.113236 7.9553192,11.033568 6.5200868,5.7013163 c 0,0 14.3237772,-2.6780254 27.0143652,-1.2631884 8.59279,0.9579855 21.129871,-0.097169 21.129871,-0.097169 0.0963,-0.098252 6.16473,14.9729821 5.238567,27.7689021 -0.562425,7.770416 -2.105151,16.314541 -4.426001,23.116681 0.278106,0.08407 -12.681813,5.200035 -25.314782,4.721542 -8.789838,-0.332933 -26.1630829,-3.976501 -26.1630829,-4.053225 0,0 4.9417549,-12.58985 4.762992,-26.146741 z"
         id="path17" />
      <path
         style="fill:#b6b8dd;stroke:#eeeeec;stroke-width:1.5"
         d="M 8.7620161,29.748118 C 8.6481552,21.113236 7.9553192,11.033568 6.5200868,5.7013163 c 0,0 14.3237772,-2.6780254 27.0143652,-1.2631884 8.59279,0.9579855 21.129871,-0.097169 21.129871,-0.097169 0.0963,-0.098252 6.16473,14.9729821 5.238567,27.7689021 -0.562425,7.770416 -2.105151,16.314541 -4.426001,23.116681 0.278106,0.08407 -12.681813,5.200035 -25.314782,4.721542 -8.789838,-0.332933 -26.1630829,-3.976501 -26.1630829,-4.053225 0,0 4.9417549,-12.58985 4.762992,-26.146741 z"
         id="path4532" />
      <path
         style="fill:#101010"
         d="m 30.162107,59.948084 c -1.801409,-0.45384 1.622284,-2.971197 2.076976,-4.095191 4.182116,-5.358735 10.751455,-8.439325 17.471568,-8.882842 2.668595,-0.182628 5.371425,-0.501603 8.03655,-0.252558 -0.223361,1.129841 -0.167714,2.773223 -1.752138,2.431906 -7.2674,0.70689 -15.011432,2.382934 -20.343211,7.755937 -1.793456,1.584667 -2.589349,4.004732 -5.489745,3.042748 z m -7.401762,-0.596285 c -2.550205,-0.219431 1.18267,-3.281858 1.511248,-4.713258 3.924365,-6.17981 7.872399,-13.15924 14.89318,-16.228035 5.818403,-2.527287 12.359998,-1.175494 18.288593,0.201005 3.064868,-0.554821 1.857531,5.078948 -0.856728,3.217366 -6.617231,-0.900672 -13.957474,-1.429606 -19.83734,2.372674 -5.791362,3.623502 -9.047505,9.844445 -12.774162,15.315029 -0.408503,-0.05314 -0.816608,-0.109267 -1.224791,-0.164781 z m 19.777881,-0.317888 c 3.906559,-2.910552 8.674065,-4.380966 13.243763,-5.928872 0.501985,0.661939 -0.181369,2.563123 -1.44693,2.604348 -3.785403,1.521362 -7.717592,2.8006 -11.753017,3.412552 l -0.04382,-0.08803 v 0 z M 15.7233,58.300311 c -2.498223,-0.518036 1.584846,-3.321308 1.961227,-4.831387 5.297814,-8.17891 9.691151,-16.90134 14.178865,-25.53879 2.286138,-4.314987 3.29455,-9.257064 2.617907,-14.112774 -0.347489,-3.123494 -0.71779,-6.2448883 -0.946845,-9.3792321 0.859665,0.2424199 3.108101,-0.4903044 2.802941,0.7858167 0.784985,5.5366504 4.225339,10.1610484 6.208527,15.2648294 0.787195,3.068355 -2.204187,4.976144 -3.94789,6.971562 -4.420778,4.267474 -8.25606,9.112188 -11.319256,14.442399 -3.382082,5.460858 -6.366749,11.185185 -10.121834,16.40517 -0.324309,0.472922 -0.994675,-0.06746 -1.433642,-0.0076 z M 8.2324989,56.870766 C 5.9490115,56.25589 9.8287098,53.976885 10.356035,52.630881 20.024068,41.097294 26.028199,26.578328 27.353703,11.588535 27.983411,9.2948869 27.222965,5.6028768 28.864351,4.2219925 31.173437,3.8482961 29.395845,6.8781767 29.781919,8.1473801 29.43723,15.477502 28.509786,22.8609 25.765797,29.721312 c -3.599304,9.863273 -8.76151,19.244766 -15.68315,27.167101 -0.5422972,0.424291 -1.2617184,0.0517 -1.8501481,-0.01765 z M 5.534879,51.456706 C 6.3408009,48.912082 6.6309014,46.111246 7.70649,43.716722 14.044558,37.441583 18.132578,29.183655 20.110021,20.536415 21.421654,15.181693 22.149271,9.7082259 22.849721,4.2468276 25.691868,3.4031894 24.589864,6.4917154 24.40221,8.278047 22.979422,19.739332 20.377885,31.436805 13.783615,41.127491 11.233048,44.746829 8.517322,48.264259 5.6286331,51.618222 L 5.5348741,51.456706 Z M 8.7401608,33.678313 C 8.6846246,31.133715 8.8043883,28.588669 8.8476785,26.044232 11.268546,23.266541 12.279069,19.517346 13.09042,15.994297 13.607987,12.491863 14.302379,8.5763423 12.641632,5.2843974 12.921357,4.1993965 16.460954,4.7858707 17.795908,4.4385226 18.992644,4.67785 17.730274,7.2137265 18.01007,8.2814652 17.127643,17.060199 15.287173,26.350404 9.3883754,33.244536 9.27366,33.214977 8.9063884,34.009852 8.7401608,33.678313 Z M 55.789424,14.266853 C 50.770358,12.251415 45.521277,9.7904826 42.362352,5.1925646 c 0.65445,-0.7413944 2.974536,-0.1921689 4.353882,-0.33728 1.361012,-0.03501 2.040579,1.6925006 3.299447,2.1285468 2.163744,1.5249292 4.766251,2.5285332 7.005791,3.7458836 0.174986,1.321044 2.669743,5.693258 -0.369497,3.876103 l -0.4197,-0.163722 -0.442853,-0.175232 z"
         id="path4534" />
      <path
         style="fill:none;stroke:#eeeeec;stroke-width:1.5"
         d="M 8.7620161,29.748118 C 8.6481552,21.113236 7.9553192,11.033568 6.5200868,5.7013163 c 0,0 14.3237772,-2.6780254 27.0143652,-1.2631884 8.59279,0.9579855 21.129871,-0.097169 21.129871,-0.097169 0.0963,-0.098252 6.16473,14.9729821 5.238567,27.7689021 -0.562425,7.770416 -2.105151,16.314541 -4.426001,23.116681 0.278106,0.08407 -12.681813,5.200035 -25.314782,4.721542 -8.789838,-0.332933 -26.1630829,-3.976501 -26.1630829,-4.053225 0,0 4.9417549,-12.58985 4.762992,-26.146741 z"
         id="path18" />
    </g>
  </g>
</svg>
