<?xml version="1.0" encoding="UTF-8" standalone="no"?>
<!-- Created with Inkscape (http://www.inkscape.org/) -->

<svg
   xmlns:dc="http://purl.org/dc/elements/1.1/"
   xmlns:cc="http://creativecommons.org/ns#"
   xmlns:rdf="http://www.w3.org/1999/02/22-rdf-syntax-ns#"
   xmlns:svg="http://www.w3.org/2000/svg"
   xmlns="http://www.w3.org/2000/svg"
   xmlns:sodipodi="http://sodipodi.sourceforge.net/DTD/sodipodi-0.dtd"
   xmlns:inkscape="http://www.inkscape.org/namespaces/inkscape"
   width="64px"
   height="64px"
   id="svg2963"
   sodipodi:version="0.32"
   inkscape:version="0.91 r13725"
   sodipodi:docname="zebra.svg"
   inkscape:output_extension="org.inkscape.output.svg.inkscape"
   version="1.1">
  <defs
     id="defs2965">
    <linearGradient
       id="linearGradient3354">
      <stop
         style="stop-color:#2157c7;stop-opacity:1;"
         offset="0"
         id="stop3356" />
      <stop
         style="stop-color:#6daaff;stop-opacity:1;"
         offset="1"
         id="stop3358" />
    </linearGradient>
    <inkscape:perspective
       sodipodi:type="inkscape:persp3d"
       inkscape:vp_x="0 : 32 : 1"
       inkscape:vp_y="0 : 1000 : 0"
       inkscape:vp_z="64 : 32 : 1"
       inkscape:persp3d-origin="32 : 21.333333 : 1"
       id="perspective2971" />
  </defs>
  <sodipodi:namedview
     id="base"
     pagecolor="#ffffff"
     bordercolor="#666666"
     borderopacity="1.0"
     inkscape:pageopacity="0.0"
     inkscape:pageshadow="2"
     inkscape:zoom="5.4999999"
     inkscape:cx="28.727478"
     inkscape:cy="10.16887"
     inkscape:current-layer="layer1"
     showgrid="true"
     inkscape:document-units="px"
     inkscape:grid-bbox="true"
     inkscape:window-width="1920"
     inkscape:window-height="1008"
     inkscape:window-x="0"
     inkscape:window-y="0"
     inkscape:snap-bbox="true"
     inkscape:bbox-paths="true"
     inkscape:bbox-nodes="true"
     inkscape:snap-bbox-edge-midpoints="true"
     inkscape:snap-bbox-midpoints="true"
     inkscape:snap-object-midpoints="true"
     inkscape:snap-center="true"
     inkscape:object-paths="true"
     inkscape:snap-intersection-paths="true"
     inkscape:object-nodes="true"
     inkscape:snap-smooth-nodes="true"
     inkscape:snap-midpoints="true"
     inkscape:snap-text-baseline="true"
     inkscape:snap-page="true"
     inkscape:window-maximized="1" />
  <metadata
     id="metadata2968">
    <rdf:RDF>
      <cc:Work
         rdf:about="">
        <dc:format>image/svg+xml</dc:format>
        <dc:type
           rdf:resource="http://purl.org/dc/dcmitype/StillImage" />
        <dc:title></dc:title>
      </cc:Work>
    </rdf:RDF>
  </metadata>
  <g
     id="layer1"
     inkscape:label="Layer 1"
     inkscape:groupmode="layer">
    <path
       sodipodi:nodetypes="scscscscs"
       style="opacity:1;fill:#b6b8dd;stroke:#000000;stroke-width:1.5"
       d="M 8.9841693,29.463466 C 8.8703084,20.828584 8.1774724,10.748916 6.74224,5.4166644 c 0,0 14.323777,-2.6780254 27.014365,-1.2631884 8.59279,0.9579855 21.129871,-0.097169 21.129871,-0.097169 0.0963,-0.098252 6.16473,14.972982 5.238567,27.768902 -0.562425,7.770416 -2.105151,16.314541 -4.426001,23.116681 0.278106,0.08407 -12.681813,5.200035 -25.314782,4.721542 -8.789838,-0.332933 -26.1630827,-3.976501 -26.1630827,-4.053225 0,0 4.9417549,-12.58985 4.762992,-26.146741 z"
       id="path4532"
       inkscape:connector-curvature="0" />
    <path
       style="opacity:1;fill:#101010"
       d="m 30.38426,59.663432 c -1.801409,-0.45384 1.622284,-2.971197 2.076976,-4.095191 4.182116,-5.358735 10.751455,-8.439325 17.471568,-8.882842 2.668595,-0.182628 5.371425,-0.501603 8.03655,-0.252558 -0.223361,1.129841 -0.167714,2.773223 -1.752138,2.431906 -7.2674,0.70689 -15.011432,2.382934 -20.343211,7.755937 -1.793456,1.584667 -2.589349,4.004732 -5.489745,3.042748 z m -7.401762,-0.596285 c -2.550205,-0.219431 1.18267,-3.281858 1.511248,-4.713258 3.924365,-6.17981 7.872399,-13.15924 14.89318,-16.228035 5.818403,-2.527287 12.359998,-1.175494 18.288593,0.201005 3.064868,-0.554821 1.857531,5.078948 -0.856728,3.217366 -6.617231,-0.900672 -13.957474,-1.429606 -19.83734,2.372674 -5.791362,3.623502 -9.047505,9.844445 -12.774162,15.315029 -0.408503,-0.05314 -0.816608,-0.109267 -1.224791,-0.164781 z m 19.777881,-0.317888 c 3.906559,-2.910552 8.674065,-4.380966 13.243763,-5.928872 0.501985,0.661939 -0.181369,2.563123 -1.44693,2.604348 -3.785403,1.521362 -7.717592,2.8006 -11.753017,3.412552 l -0.04382,-0.08803 0,0 z m -26.814926,-0.7336 c -2.498223,-0.518036 1.584846,-3.321308 1.961227,-4.831387 5.297814,-8.17891 9.691151,-16.90134 14.178865,-25.53879 2.286138,-4.314987 3.29455,-9.257064 2.617907,-14.112774 -0.347489,-3.123494 -0.71779,-6.2448882 -0.946845,-9.379232 0.859665,0.2424199 3.108101,-0.4903044 2.802941,0.7858167 0.784985,5.5366503 4.225339,10.1610483 6.208527,15.2648293 0.787195,3.068355 -2.204187,4.976144 -3.94789,6.971562 -4.420778,4.267474 -8.25606,9.112188 -11.319256,14.442399 -3.382082,5.460858 -6.366749,11.185185 -10.121834,16.40517 -0.324309,0.472922 -0.994675,-0.06746 -1.433642,-0.0076 z M 8.4546521,56.586114 C 6.1711647,55.971238 10.050863,53.692233 10.578188,52.346229 20.246221,40.812642 26.250352,26.293676 27.575856,11.303883 28.205564,9.010235 27.445118,5.3182249 29.086504,3.9373406 31.39559,3.5636442 29.617998,6.5935248 30.004072,7.8627282 29.659383,15.19285 28.731939,22.576248 25.98795,29.43666 22.388646,39.299933 17.22644,48.681426 10.3048,56.603761 9.762503,57.028052 9.0430818,56.655466 8.4546521,56.586114 Z M 5.7570322,51.172054 C 6.5629541,48.62743 6.8530546,45.826594 7.9286432,43.43207 14.266711,37.156931 18.354731,28.899003 20.332174,20.251763 21.643807,14.897041 22.371424,9.423574 23.071874,3.9621757 25.914021,3.1185375 24.812017,6.2070635 24.624363,7.9933951 23.201575,19.45468 20.600038,31.152153 14.005768,40.842839 11.455201,44.462177 8.7394752,47.979607 5.8507863,51.33357 l -0.093759,-0.161516 4.9e-6,0 z M 8.962314,33.393661 C 8.9067778,30.849063 9.0265415,28.304017 9.0698317,25.75958 11.490699,22.981889 12.501222,19.232694 13.312573,15.709645 13.83014,12.207211 14.524532,8.2916904 12.863785,4.9997455 13.14351,3.9147446 16.683107,4.5012188 18.018061,4.1538707 19.214797,4.3931981 17.952427,6.9290746 18.232223,7.9968133 17.349796,16.775547 15.509326,26.065752 9.6105286,32.959884 9.4958132,32.930325 9.1285416,33.7252 8.962314,33.393661 Z M 56.011577,13.982201 C 50.992511,11.966763 45.74343,9.5058307 42.584505,4.9079127 c 0.65445,-0.7413944 2.974536,-0.1921689 4.353882,-0.33728 1.361012,-0.03501 2.040579,1.6925006 3.299447,2.1285468 2.163744,1.5249292 4.766251,2.5285332 7.005791,3.7458835 0.174986,1.321044 2.669743,5.693258 -0.369497,3.876103 l -0.4197,-0.163722 -0.442853,-0.175232 2e-6,-1.1e-5 z"
       id="path4534"
       inkscape:connector-curvature="0" />
  </g>
</svg>
